<svg width="185" height="65" viewBox="0 0 185 65" fill="none" xmlns="http://www.w3.org/2000/svg">
<g clip-path="url(#clip0_288_362)">
<path d="M90.4846 31.6194C90.0254 31.8014 89.4267 31.8925 88.6881 31.8925C87.5304 31.8925 86.6818 31.7358 86.1429 31.4224C85.6039 31.1087 85.2845 30.5673 85.1847 29.7984C84.9851 29.8187 84.7803 29.834 84.5705 29.844C84.3608 29.8539 84.1464 29.8589 83.9268 29.8589C82.9887 29.8589 82.1152 29.7834 81.3067 29.6313C80.4983 29.4796 79.7998 29.2314 79.2109 28.8877C78.622 28.5437 78.1575 28.0782 77.8184 27.4916C77.479 26.9046 77.3093 26.1863 77.3093 25.3365V11.5261C77.3093 10.6763 77.479 9.95793 77.8184 9.371C78.1579 8.78406 78.622 8.31893 79.2109 7.97489C79.7998 7.63084 80.4983 7.38296 81.3067 7.23124C82.1152 7.07952 82.9887 7.00366 83.9268 7.00366C84.8449 7.00366 85.7033 7.07917 86.5019 7.23124C87.3006 7.38296 87.9942 7.63583 88.583 7.9902C89.1719 8.34421 89.6357 8.8097 89.9751 9.38667C90.3146 9.96327 90.4843 10.6866 90.4843 11.5567V25.3066C90.4843 26.3587 90.2499 27.1985 89.7808 27.8257C89.3118 28.4528 88.6579 28.9283 87.8195 29.252H90.4846V31.6194ZM85.4243 11.1012C85.4243 10.1905 84.9254 9.73534 83.9272 9.73534C82.929 9.73534 82.43 10.1905 82.43 11.1012V25.7618C82.43 26.6724 82.929 27.1276 83.9272 27.1276C84.9254 27.1276 85.4243 26.6724 85.4243 25.7618V11.1012ZM92.2815 11.5261C92.2815 10.6763 92.4512 9.95793 92.7906 9.371C93.13 8.78406 93.5941 8.31893 94.183 7.97489C94.7719 7.63084 95.4704 7.38296 96.2789 7.23124C97.0874 7.07952 97.9608 7.00366 98.899 7.00366C99.8171 7.00366 100.675 7.07917 101.474 7.23124C102.272 7.38296 102.966 7.63583 103.555 7.9902C104.144 8.34421 104.608 8.8097 104.947 9.38667C105.287 9.96327 105.456 10.6866 105.456 11.5567V25.3671C105.456 26.2372 105.287 26.9606 104.947 27.5372C104.608 28.1138 104.144 28.5793 103.555 28.9333C102.966 29.2877 102.272 29.5405 101.474 29.6926C100.675 29.8443 99.8171 29.9202 98.899 29.9202C97.9608 29.9202 97.087 29.8447 96.2789 29.6926C95.4704 29.5409 94.7719 29.2926 94.183 28.949C93.5941 28.6049 93.1296 28.1394 92.7906 27.5528C92.4512 26.9659 92.2815 26.2479 92.2815 25.3978V11.5264V11.5261ZM100.396 11.1012C100.396 10.1905 99.8975 9.73534 98.8993 9.73534C97.9011 9.73534 97.4022 10.1905 97.4022 11.1012V25.8223C97.4022 26.733 97.9011 27.1881 98.8993 27.1881C99.8975 27.1881 100.396 26.733 100.396 25.8223V11.1012ZM115.488 29.252V21.7853C115.488 20.4095 114.859 19.7214 113.602 19.7214H112.494V29.252H107.373V11.5261C107.373 10.6763 107.543 9.95793 107.882 9.371C108.222 8.78406 108.686 8.31893 109.275 7.97489C109.864 7.63084 110.562 7.38296 111.37 7.23124C112.179 7.07952 113.052 7.00366 113.991 7.00366C114.909 7.00366 115.747 7.07917 116.506 7.23124C117.265 7.38296 117.923 7.63583 118.482 7.9902C119.041 8.34421 119.475 8.8097 119.785 9.38667C120.094 9.96327 120.249 10.6866 120.249 11.5567V15.078C120.249 16.1097 119.969 16.9039 119.41 17.4602C118.851 18.0166 117.923 18.3456 116.625 18.4468C117.923 18.5682 118.876 18.8717 119.485 19.3575C120.094 19.8433 120.398 20.5107 120.398 21.3605V29.252H115.488H115.488ZM115.488 11.1012C115.488 10.1905 114.989 9.73534 113.991 9.73534C112.993 9.73534 112.494 10.1905 112.494 11.1012V17.2932H113.602C114.2 17.2932 114.664 17.1461 114.994 16.853C115.323 16.5595 115.488 16.0591 115.488 15.3508V11.1012ZM130.55 29.252V20.6927H127.556V29.252H122.435V11.2226C122.435 10.5751 122.605 9.9882 122.944 9.46217C123.284 8.93614 123.748 8.49095 124.337 8.12661C124.926 7.76226 125.624 7.48411 126.433 7.29179C127.241 7.09947 128.115 7.00366 129.053 7.00366C129.971 7.00366 130.829 7.09947 131.628 7.29179C132.426 7.48411 133.12 7.76226 133.709 8.12661C134.298 8.49095 134.762 8.93614 135.101 9.46217C135.44 9.9882 135.61 10.5751 135.61 11.2226V29.252H130.55H130.55ZM130.55 11.1012C130.55 10.1905 130.051 9.73534 129.053 9.73534C128.055 9.73534 127.556 10.1905 127.556 11.1012V17.8698H130.55V11.1012ZM146.151 29.252L142.618 18.3556V29.252H137.527V7.64117H142.618V17.2024L146.301 7.64117H151.062L147.349 16.9898L151.661 29.252H146.151ZM151.93 11.5261C151.93 10.6763 152.1 9.95793 152.44 9.371C152.779 8.78406 153.243 8.31893 153.832 7.97489C154.421 7.63084 155.119 7.38296 155.928 7.23124C156.736 7.07952 157.61 7.00366 158.548 7.00366C159.466 7.00366 160.324 7.07917 161.123 7.23124C161.921 7.38296 162.615 7.63583 163.204 7.9902C163.793 8.34421 164.257 8.8097 164.596 9.38667C164.936 9.96327 165.105 10.6866 165.105 11.5567V25.3671C165.105 26.2372 164.936 26.9606 164.596 27.5372C164.257 28.1138 163.793 28.5793 163.204 28.9333C162.615 29.2877 161.921 29.5405 161.123 29.6926C160.324 29.8443 159.466 29.9202 158.548 29.9202C157.61 29.9202 156.736 29.8447 155.928 29.6926C155.119 29.5409 154.421 29.2926 153.832 28.949C153.243 28.6049 152.779 28.1394 152.44 27.5528C152.1 26.9659 151.93 26.2479 151.93 25.3978V11.5264V11.5261ZM160.045 11.1012C160.045 10.1905 159.546 9.73534 158.548 9.73534C157.55 9.73534 157.051 10.1905 157.051 11.1012V25.8223C157.051 26.733 157.55 27.1881 158.548 27.1881C159.546 27.1881 160.045 26.733 160.045 25.8223V11.1012ZM168.789 13.7719L166.543 7.64082H171.334L171.663 13.7719H168.789ZM173.67 29.252V7.64117H178.761V26.2778H184.929V29.252H173.67H173.67Z" fill="#EE693E" stroke="#96989A" stroke-width="0.756155" stroke-miterlimit="22.9256"/>
<path d="M77.3093 57.3299V54.8109L83.2982 38.6327H77.459V35.7191H88.7478V38.2684L82.819 54.3856H88.7478V57.3296H77.3093V57.3299ZM90.6044 57.3299V35.7191H95.6953V57.3299H90.6044ZM101.684 57.3299V49.2257L96.9827 35.7191H102.163L104.708 45.0071L107.223 35.7191H111.835L106.894 49.2257V57.3299H101.683H101.684ZM111.835 39.6039C111.835 38.7542 112.005 38.0358 112.344 37.4489C112.684 36.8619 113.148 36.3968 113.737 36.0528C114.325 35.7087 115.024 35.4608 115.832 35.3091C116.641 35.1574 117.514 35.0815 118.452 35.0815C119.371 35.0815 120.229 35.1574 121.028 35.3091C121.826 35.4608 122.52 35.7137 123.109 36.0681C123.698 36.4221 124.161 36.8876 124.501 37.4645C124.84 38.0412 125.01 38.7645 125.01 39.6346V53.445C125.01 54.3151 124.84 55.0384 124.501 55.6151C124.161 56.1917 123.698 56.6571 123.109 57.0112C122.52 57.3655 121.826 57.6188 121.028 57.7705C120.229 57.9222 119.371 57.9981 118.452 57.9981C117.514 57.9981 116.641 57.9226 115.832 57.7705C115.024 57.6188 114.325 57.3705 113.737 57.0268C113.148 56.6828 112.683 56.2173 112.344 55.6307C112.005 55.0438 111.835 54.3254 111.835 53.4757V39.6043V39.6039ZM119.95 39.1791C119.95 38.2684 119.451 37.8132 118.453 37.8132C117.455 37.8132 116.956 38.2684 116.956 39.1791V53.9002C116.956 54.8109 117.455 55.266 118.453 55.266C119.451 55.266 119.95 54.8109 119.95 53.9002V39.1791Z" fill="#3A4D7C" stroke="#96989A" stroke-width="0.756155" stroke-miterlimit="22.9256"/>
<path d="M57.1529 17.4959C51.171 5.76716 37.7364 -0.665275 25.0193 2.10095C9.29135 5.52356 -0.756484 20.4968 1.88925 36.5763C4.21244 50.708 16.5525 61.3844 30.6839 61.3787C32.388 61.3783 33.8349 61.6194 35.0369 62.8838C35.5513 63.4258 36.1936 63.5362 36.9233 63.5327C41.7633 63.5092 46.6001 63.5206 51.4376 63.5202C51.6435 63.5202 51.8621 63.5604 52.0501 63.5049C52.2981 63.4319 52.6003 63.335 52.7321 63.1441C52.8037 63.0394 52.5912 62.7053 52.4629 62.502C52.3733 62.3531 52.2057 62.2537 52.0803 62.1234C50.5705 60.5382 49.0639 58.9479 47.5481 57.367C47.1057 56.9068 47.0998 56.5343 47.6795 56.1924C47.9666 56.0239 48.2266 55.8095 48.4929 55.6097C59.7185 47.2438 63.6825 32.1116 58.0024 19.2564C57.7217 18.6267 57.4635 18.1039 57.1536 17.4966L57.1529 17.4959ZM45.246 64.3703C42.382 64.3703 39.515 64.3429 36.6482 64.3878C35.8527 64.4002 35.1802 64.2425 34.6335 63.6748C33.5243 62.5262 32.2063 62.2623 30.6305 62.2612C16.3948 62.2552 3.83298 51.6262 1.16616 37.4293C-1.93705 20.9 8.11078 5.08513 24.2751 1.39862C41.8715 -2.6152 58.065 9.23963 60.8695 25.8423C62.9622 38.2545 58.8548 48.424 49.106 56.2369C48.3404 56.8491 48.287 56.966 48.9922 57.6786C50.8758 59.5808 52.7949 61.4478 54.6902 63.3407C55.2815 63.9373 55.1905 64.3511 54.3072 64.3572C51.288 64.3782 48.2656 64.3707 45.2463 64.3707L45.246 64.3703Z" fill="#FEFEFE"/>
<path d="M56.6159 17.7768C53.6884 12.0363 48.9345 7.59051 43.356 4.91796C37.776 2.24469 31.3718 1.34612 25.1447 2.70092C17.4379 4.37803 11.1244 8.88263 7.06299 14.9365C3.00128 20.9907 1.18896 28.597 2.48548 36.4765C3.62388 43.4018 7.22005 49.4806 12.2638 53.8253C17.2992 58.1625 23.774 60.7709 30.6838 60.7681C31.5893 60.7677 32.4315 60.8333 33.2189 61.0701C34.0407 61.3176 34.7912 61.7439 35.4718 62.4602C35.6493 62.6471 35.8499 62.7604 36.0695 62.8259C36.3228 62.9021 36.6102 62.9235 36.9208 62.9217C40.5451 62.9043 44.169 62.9061 47.7926 62.9082L51.4376 62.9093V62.9068C51.4875 62.9068 51.5718 62.9118 51.6555 62.9164C51.7524 62.9217 51.8498 62.9274 51.8821 62.9178C51.985 62.8875 52.0978 62.853 52.1839 62.8127C52.2148 62.7985 52.2292 62.8003 52.2352 62.7964C52.3884 62.5716 52.0198 62.8943 51.9608 62.8402L51.9597 62.8409L51.9467 62.8213C51.9404 62.8106 51.8919 62.7696 51.8431 62.7283C51.7763 62.6721 51.7089 62.6151 51.6467 62.5503L50.2844 61.1185C49.229 60.0084 48.1728 58.8979 47.1145 57.7939C46.768 57.4338 46.5955 57.0716 46.6268 56.6873C46.6598 56.282 46.8994 55.9437 47.3762 55.6623C47.5642 55.5523 47.7582 55.4034 47.9507 55.2552L48.1348 55.1153C53.6336 51.0174 57.3538 45.262 59.0027 38.9571C60.6517 32.6535 60.2314 25.8012 57.4511 19.507L57.4501 19.5073C57.2997 19.1693 57.169 18.8897 57.046 18.6358C56.9272 18.3908 56.7828 18.1044 56.6152 17.7764L56.6159 17.7768ZM53.226 63.4944C53.1561 63.5963 53.0707 63.681 52.9759 63.753L54.2351 63.7459C53.9256 63.4371 53.6129 63.1258 53.2981 62.8138C53.3676 63.0403 53.374 63.2782 53.2285 63.4919L53.226 63.4944ZM47.833 56.7831C47.833 56.7845 47.8548 56.8084 47.8963 56.8522C47.8998 56.8194 47.905 56.7874 47.9114 56.7564C47.8583 56.776 47.8341 56.7699 47.833 56.7835V56.7831ZM45.2456 64.9842L42.8845 64.9778C40.8093 64.9724 38.7328 64.9667 36.6549 64.9995C36.1977 65.0066 35.7691 64.9625 35.365 64.8318C34.9357 64.6925 34.5467 64.4617 34.1999 64.102C33.7221 63.6077 33.1992 63.3039 32.6265 63.1233C32.025 62.9338 31.3592 62.8736 30.6297 62.8733C23.3731 62.8701 16.5434 60.163 11.1876 55.6491C5.82234 51.1274 1.93314 44.7912 0.571623 37.5424C-1.01231 29.1041 0.767682 20.8461 5.01 14.2313C9.23896 7.63752 15.9137 2.67848 24.1419 0.801922C24.7128 0.671571 25.2694 0.55974 25.8112 0.465716C34.1781 -0.98631 42.1494 1.04446 48.4626 5.38772C54.7759 9.73098 59.4293 16.3874 61.1608 24.1864C61.2774 24.7125 61.379 25.2303 61.4651 25.7392C62.5237 32.0185 62.0213 37.7412 60.028 42.8918C58.0108 48.1034 54.4705 52.7166 49.4791 56.7169C49.2272 56.9184 49.1018 56.9487 49.0979 56.9851C49.093 57.0324 49.2047 57.0299 49.4173 57.2447C50.5121 58.3505 51.6309 59.4553 52.7492 60.5604C53.5328 61.3344 54.3163 62.1086 55.1132 62.9043L55.1156 62.9068C55.3549 63.1482 55.5183 63.3858 55.6005 63.6095C55.6891 63.8502 55.6933 64.0821 55.6107 64.2997V64.3022C55.5253 64.5262 55.3641 64.7 55.1251 64.8154C54.9238 64.9126 54.6522 64.9667 54.3093 64.9689C51.9218 64.9853 49.5311 64.9842 47.1415 64.9828L45.2459 64.9821V64.9846L45.2456 64.9842Z" fill="#3A4D7C"/>
<path d="M52.2142 18.4261C51.3323 19.0615 50.4412 19.7004 49.5087 20.3725C49.3084 20.0822 49.15 19.8535 48.9915 19.6245C45.3714 14.372 40.4447 11.2108 34.1877 10.3237C23.0011 8.73808 12.481 16.5235 10.4719 27.7961C8.73517 37.5386 13.6019 47.0635 22.448 51.2803C22.8486 51.4715 23.2133 51.7775 23.539 52.0902C25.0397 53.5344 26.5196 54.9999 27.9008 56.3519C24.3464 56.2365 18.5557 53.8218 14.5976 50.0231C10.7861 46.3672 8.24187 41.9794 7.22257 36.7639C4.75919 24.1466 11.7066 11.9263 23.6138 7.96452C35.0903 4.14587 46.7554 9.25949 52.2142 18.4264V18.4261Z" fill="#EE693E" stroke="#96989A" stroke-width="0.756155" stroke-miterlimit="22.9256"/>
<path d="M57.3054 18.1732C57.2305 18.4638 57.2098 18.7801 57.078 19.0415C53.9091 25.4184 48.8629 29.7299 42.4984 32.5549C37.455 34.7926 32.1579 35.9366 26.6629 36.1556C26.4894 36.1624 26.313 36.1816 25.9841 36.2073C26.1278 37.052 26.2322 37.858 26.4026 38.649C27.8734 45.4657 31.667 50.7528 36.9645 55.0366C39.353 56.968 41.939 58.5835 44.7102 59.8909C44.8894 59.9757 45.0598 60.0775 45.2991 60.205C40.8927 60.4743 31.114 55.542 26.573 50.719C21.4969 45.33 18.8273 38.8321 18.0202 31.3543C19.0427 31.5306 19.9334 31.7059 20.8304 31.8348C27.2757 32.7622 33.4579 31.6154 39.4609 29.2755C45.8465 26.7874 51.5803 23.1793 56.8209 18.7441C57.0092 18.5863 57.1437 18.3655 57.3054 18.1739V18.1729V18.1732Z" fill="#3A4D7C" stroke="#96989A" stroke-width="0.756155" stroke-miterlimit="22.9256"/>
<path d="M59.344 25.2087C58.6058 26.6981 57.9628 28.2492 57.1079 29.6663C54.1723 34.5188 49.8734 37.8054 44.857 40.1421C42.7078 41.1429 40.4268 41.8623 38.1756 42.6223C37.5836 42.8225 37.4732 43.0194 37.6046 43.5871C38.678 48.236 40.905 52.2608 43.9931 55.8255C44.1276 55.9805 44.259 56.1382 44.4087 56.3149C39.6734 55.5477 31.2907 45.3198 30.5374 39.344C42.1305 38.8646 51.7356 34.2328 59.1437 25.0947C59.2094 25.1325 59.2783 25.1706 59.344 25.2087Z" fill="#3A4D7C" stroke="#96989A" stroke-width="0.756155" stroke-miterlimit="22.9256"/>
<path d="M13.8562 23.8214C19.336 20.0957 30.7977 22.5036 34.1367 28.0677C32.9498 28.2654 31.8111 28.4962 30.6628 28.6394C27.509 29.0322 24.3489 29.2195 21.1803 28.8317C20.6245 28.7633 20.0774 28.6312 19.5212 28.5425C18.3972 28.3626 17.5842 28.0467 17.3361 26.6154C17.0343 24.8834 15.671 24.0336 13.8562 23.8214Z" fill="#3A4D7C" stroke="#96989A" stroke-width="0.756155" stroke-miterlimit="22.9256"/>
<path d="M45.2158 52.4119C44.6329 51.5407 44.1276 50.764 43.5985 50.004C43.3385 49.6311 43.4699 49.4184 43.7896 49.182C46.7909 46.9802 49.0839 44.1798 50.6685 40.7829C50.7402 40.6233 50.8389 40.4499 50.9704 40.3459C52.465 39.1841 53.966 38.0348 55.5233 36.8381C54.0883 43.371 50.6506 48.486 45.2154 52.4119H45.2158Z" fill="#EE693E" stroke="#96989A" stroke-width="0.756155" stroke-miterlimit="22.9256"/>
</g>
<defs>
<clipPath id="clip0_288_362">
<rect width="185" height="65" fill="white"/>
</clipPath>
</defs>
</svg>
