<svg width="21" height="21" viewBox="0 0 21 21" fill="none" xmlns="http://www.w3.org/2000/svg">
<path d="M16.6608 11.8793C17.0951 12.2834 17.6048 12.4854 18.19 12.4851C18.8635 12.4851 19.4131 12.2832 19.8387 11.8793C20.2643 11.4754 20.4771 10.9485 20.477 10.2988C20.477 9.64935 20.2509 9.12257 19.7988 8.71844C19.3468 8.3146 18.8106 8.11265 18.1901 8.11258C17.5693 8.11258 17.0507 8.32768 16.6344 8.75789C16.2176 9.18843 16.0092 9.71086 16.0093 10.3252C16.0093 10.9574 16.2264 11.4754 16.6608 11.8793ZM0.624928 11.8793C1.04134 12.2834 1.57765 12.4854 2.23386 12.4851C2.85426 12.4851 3.36842 12.2832 3.77633 11.8793C4.18393 11.4755 4.3878 10.9487 4.38793 10.2988C4.38793 9.64935 4.17517 9.12257 3.74965 8.71844C3.32424 8.3146 2.81897 8.11265 2.23386 8.11258C1.55993 8.11258 1.0192 8.32768 0.611688 8.75789C0.203578 9.1885 -0.000318484 9.71096 3.73393e-07 10.3253C3.73393e-07 10.9574 0.20831 11.4754 0.624928 11.8793ZM8.29719 3.08179C8.41857 3.34173 8.58513 3.57806 8.78911 3.77978C9.21165 4.19385 9.77979 4.42556 10.3714 4.4251C11.0271 4.4251 11.559 4.20999 11.9671 3.77978C12.3748 3.34967 12.5787 2.82725 12.5788 2.21251C12.5788 1.58036 12.3572 1.05357 11.9139 0.632143C11.4707 0.210714 10.9566 0 10.3715 0C9.69753 0 9.15236 0.215109 8.73596 0.645326C8.31924 1.07577 8.11093 1.59816 8.11103 2.21249C8.1075 2.51251 8.1711 2.80953 8.29719 3.08179ZM8.77585 19.9656C9.21885 20.3694 9.75074 20.5713 10.3715 20.5714C11.0098 20.5714 11.5373 20.3695 11.9539 19.9656C12.3702 19.5615 12.5785 19.0259 12.5789 18.3589C12.5789 17.7444 12.3572 17.2396 11.914 16.8444C11.4708 16.4492 10.9566 16.2516 10.3715 16.2516C9.69753 16.2516 9.15236 16.458 8.73596 16.8706C8.31924 17.2834 8.11093 17.7883 8.11103 18.3851C8.11103 19.0347 8.33264 19.5616 8.77585 19.9656ZM19.0995 0.17148L10.2475 8.94377L1.37662 0.17148L0.0595889 1.49143L8.91166 10.2452L0.0595889 18.9988L1.37662 20.3187L10.2475 11.5465L19.0995 20.3187L20.3977 18.9988L11.5457 10.2452L20.3977 1.49143L19.0995 0.17148Z" fill="#F75929"/>
</svg>
