<svg width="54" height="54" viewBox="0 0 54 54" fill="none" xmlns="http://www.w3.org/2000/svg">
<g clip-path="url(#clip0_300_1990)">
<path d="M43.875 50.625C47.6029 50.625 50.625 47.6029 50.625 43.875C50.625 40.1471 47.6029 37.125 43.875 37.125C40.1471 37.125 37.125 40.1471 37.125 43.875C37.125 47.6029 40.1471 50.625 43.875 50.625Z" fill="white"/>
<path d="M20.2498 21.9375H16.8748V25.3125H20.2498V21.9375Z" fill="white"/>
<path d="M20.2498 30.375H16.8748V33.75H20.2498V30.375Z" fill="white"/>
<path d="M20.2498 38.8125H16.8748V42.1875H20.2498V38.8125Z" fill="white"/>
<path d="M37.1248 21.9375H23.6248V25.3125H37.1248V21.9375Z" fill="white"/>
<path d="M37.1248 30.375H23.6248V33.75H37.1248V30.375Z" fill="white"/>
<path d="M30.375 38.8125H23.6248V42.1875H30.375V38.8125Z" fill="white"/>
<path d="M11.8125 47.25V11.8125H16.875V16.875H37.125V11.8125H42.1875V30.375H45.5625V11.8125C45.5625 10.9174 45.2069 10.0589 44.574 9.42601C43.941 8.79308 43.0826 8.4375 42.1875 8.4375H37.125V6.75C37.125 5.85489 36.7694 4.99645 36.1365 4.36351C35.5035 3.73058 34.6451 3.375 33.75 3.375H20.25C19.3549 3.375 18.4965 3.73058 17.8635 4.36351C17.2306 4.99645 16.875 5.85489 16.875 6.75V8.4375H11.8125C10.9174 8.4375 10.0589 8.79308 9.42601 9.42601C8.79308 10.0589 8.4375 10.9174 8.4375 11.8125V47.25C8.4375 48.1451 8.79308 49.0035 9.42601 49.6365C10.0589 50.2694 10.9174 50.625 11.8125 50.625H30.375V47.25H11.8125ZM20.25 6.75H33.75V13.5H20.25V6.75Z" fill="white"/>
</g>
<defs>
<clipPath id="clip0_300_1990">
<rect width="54" height="54" fill="white"/>
</clipPath>
</defs>
</svg>
