<svg width="76" height="76" viewBox="0 0 76 76" fill="none" xmlns="http://www.w3.org/2000/svg">
<path fill-rule="evenodd" clip-rule="evenodd" d="M38 75.5C42.9246 75.5 47.8009 74.53 52.3506 72.6455C56.9003 70.7609 61.0343 67.9987 64.5165 64.5165C67.9987 61.0343 70.7609 56.9003 72.6455 52.3506C74.53 47.8009 75.5 42.9246 75.5 38C75.5 33.0754 74.53 28.1991 72.6455 23.6494C70.7609 19.0997 67.9987 14.9657 64.5165 11.4835C61.0343 8.0013 56.9003 5.23907 52.3506 3.35452C47.8009 1.46997 42.9246 0.5 38 0.5C28.0544 0.5 18.5161 4.45088 11.4835 11.4835C4.45088 18.5161 0.5 28.0544 0.5 38C0.5 47.9456 4.45088 57.4839 11.4835 64.5165C18.5161 71.5491 28.0544 75.5 38 75.5ZM32.9292 21.2917L56.4458 34.3583C57.0951 34.7193 57.636 35.2473 58.0126 35.8875C58.3892 36.5278 58.5878 37.2572 58.5878 38C58.5878 38.7428 58.3892 39.4722 58.0126 40.1124C57.636 40.7527 57.0951 41.2807 56.4458 41.6417L32.9292 54.7083C32.1677 55.1316 31.3089 55.3485 30.4378 55.3377C29.5666 55.3268 28.7135 55.0886 27.9628 54.6465C27.2121 54.2044 26.5899 53.5739 26.158 52.8173C25.726 52.0608 25.4992 51.2045 25.5 50.3333V25.6667C25.4992 24.7955 25.726 23.9392 26.158 23.1827C26.5899 22.4261 27.2121 21.7956 27.9628 21.3535C28.7135 20.9114 29.5666 20.6732 30.4378 20.6623C31.3089 20.6515 32.1677 20.8684 32.9292 21.2917Z" fill="#F75929"/>
</svg>
