<svg width="28" height="28" viewBox="0 0 28 28" fill="none" xmlns="http://www.w3.org/2000/svg">
<path d="M15.3707 0.666748C16.8707 0.670748 17.632 0.678748 18.2893 0.697415L18.548 0.706748C18.8467 0.717415 19.1413 0.730748 19.4973 0.746748C20.916 0.813415 21.884 1.03741 22.7333 1.36675C23.6133 1.70541 24.3547 2.16408 25.096 2.90408C25.7742 3.57039 26.2989 4.37671 26.6333 5.26675C26.9627 6.11608 27.1867 7.08408 27.2533 8.50408C27.2693 8.85875 27.2827 9.15341 27.2933 9.45341L27.3013 9.71208C27.3213 10.3681 27.3293 11.1294 27.332 12.6294L27.3333 13.6241V15.3707C27.3366 16.3433 27.3263 17.3158 27.3027 18.2881L27.2947 18.5467C27.284 18.8467 27.2707 19.1414 27.2547 19.4961C27.188 20.9161 26.9613 21.8827 26.6333 22.7334C26.2989 23.6235 25.7742 24.4298 25.096 25.0961C24.4297 25.7743 23.6234 26.299 22.7333 26.6334C21.884 26.9627 20.916 27.1868 19.4973 27.2534L18.548 27.2934L18.2893 27.3014C17.632 27.3201 16.8707 27.3294 15.3707 27.3321L14.376 27.3334H12.6307C11.6577 27.3368 10.6847 27.3266 9.71199 27.3027L9.45332 27.2948C9.1368 27.2828 8.82035 27.269 8.50399 27.2534C7.08532 27.1868 6.11732 26.9627 5.26665 26.6334C4.37709 26.2988 3.57124 25.7742 2.90532 25.0961C2.22658 24.4299 1.70146 23.6236 1.36665 22.7334C1.03732 21.8841 0.813319 20.9161 0.746652 19.4961L0.706652 18.5467L0.699985 18.2881C0.675407 17.3158 0.664294 16.3433 0.666652 15.3707V12.6294C0.662961 11.6569 0.67274 10.6843 0.695985 9.71208L0.705319 9.45341C0.715985 9.15341 0.729319 8.85875 0.745319 8.50408C0.811985 7.08408 1.03599 6.11741 1.36532 5.26675C1.70091 4.37635 2.22695 3.57 2.90665 2.90408C3.57219 2.22615 4.37757 1.70151 5.26665 1.36675C6.11732 1.03741 7.08399 0.813415 8.50399 0.746748C8.85865 0.730748 9.15465 0.717415 9.45332 0.706748L9.71199 0.698748C10.6842 0.675058 11.6568 0.664835 12.6293 0.668081L15.3707 0.666748ZM14 7.33342C12.2319 7.33342 10.5362 8.03579 9.28594 9.28604C8.0357 10.5363 7.33332 12.232 7.33332 14.0001C7.33332 15.7682 8.0357 17.4639 9.28594 18.7141C10.5362 19.9644 12.2319 20.6667 14 20.6667C15.7681 20.6667 17.4638 19.9644 18.714 18.7141C19.9643 17.4639 20.6667 15.7682 20.6667 14.0001C20.6667 12.232 19.9643 10.5363 18.714 9.28604C17.4638 8.03579 15.7681 7.33342 14 7.33342ZM14 10.0001C14.5253 9.99999 15.0454 10.1034 15.5308 10.3043C16.0161 10.5052 16.4571 10.7998 16.8286 11.1712C17.2001 11.5426 17.4948 11.9835 17.6959 12.4687C17.897 12.954 18.0006 13.4741 18.0007 13.9994C18.0007 14.5247 17.8974 15.0449 17.6964 15.5302C17.4955 16.0155 17.2009 16.4565 16.8296 16.828C16.4582 17.1995 16.0173 17.4942 15.532 17.6953C15.0467 17.8964 14.5266 18 14.0013 18.0001C12.9405 18.0001 11.923 17.5787 11.1729 16.8285C10.4227 16.0784 10.0013 15.0609 10.0013 14.0001C10.0013 12.9392 10.4227 11.9218 11.1729 11.1717C11.923 10.4215 12.9405 10.0001 14.0013 10.0001M21.0013 5.33342C20.5593 5.33342 20.1354 5.50901 19.8228 5.82157C19.5102 6.13413 19.3347 6.55805 19.3347 7.00008C19.3347 7.44211 19.5102 7.86603 19.8228 8.17859C20.1354 8.49115 20.5593 8.66675 21.0013 8.66675C21.4433 8.66675 21.8673 8.49115 22.1798 8.17859C22.4924 7.86603 22.668 7.44211 22.668 7.00008C22.668 6.55805 22.4924 6.13413 22.1798 5.82157C21.8673 5.50901 21.4433 5.33342 21.0013 5.33342Z" fill="#2D487D"/>
</svg>
