<svg width="24" height="22" viewBox="0 0 24 22" fill="none" xmlns="http://www.w3.org/2000/svg">
<path d="M12.1493 6.29507C14.3565 3.40447 16.3482 2.07041 17.2822 2.07041C17.4107 2.07041 17.5173 2.0946 17.5997 2.14307C18.0988 2.43144 18.1933 3.7011 17.859 5.37791C18.3921 5.47972 18.9034 5.59597 19.3904 5.72685C19.9138 3.19954 19.5649 1.45007 18.3921 0.771599C17.1999 0.0834742 15.5329 0.648037 13.5701 2.40472C12.4434 3.41291 11.2618 4.78747 10.1633 6.34804C9.06769 6.41141 7.98487 6.53113 6.95822 6.70551C6.21637 4.21176 6.26981 2.49744 6.88481 2.14297C6.96722 2.09451 7.07381 2.07032 7.20225 2.07032C7.88559 2.07032 9.00741 2.74879 10.2044 3.88766C10.5436 3.46851 10.8853 3.06866 11.2269 2.6931C9.15534 0.737756 7.33556 0.0544117 6.09497 0.771599C4.90284 1.45738 4.55869 3.18257 5.09906 5.76313C5.18353 6.16635 5.28994 6.58701 5.41556 7.02023C2.40244 7.74773 0.1875 9.01044 0.1875 10.7595C0.1875 12.2012 1.70916 13.4443 4.4715 14.2585L4.58784 14.2924L4.62178 14.1785C4.74778 13.7641 4.89075 13.3425 5.04581 12.9234L5.08941 12.8023L4.96584 12.7659C3.05409 12.2062 1.77225 11.3993 1.77225 10.7596C1.77225 10.0358 3.28528 9.11019 5.90512 8.50569C6.26334 9.48351 6.7035 10.4983 7.20759 11.5089C6.45009 13.174 5.88225 14.8138 5.58375 16.2407C5.04337 18.8189 5.38744 20.5441 6.57966 21.2298C6.90431 21.4188 7.27022 21.5133 7.66762 21.5133C8.65866 21.5133 9.86775 20.9148 11.1932 19.7759C10.8322 19.4076 10.4783 19.0199 10.1343 18.6153C9.14812 19.4489 8.26125 19.9334 7.68694 19.9334C7.56094 19.9334 7.45434 19.9092 7.3695 19.8607C6.59953 19.4153 6.70725 16.8429 8.15728 13.2753C10.4609 17.2519 14.1441 21.5132 16.8171 21.5132C17.2145 21.5132 17.5803 21.4187 17.905 21.2297H17.9075C20.3717 19.8098 18.85 14.2924 16.3591 9.65226C15.7679 9.55776 15.1209 9.48022 14.4157 9.42444L14.4957 9.5601C17.6191 14.9684 18.1327 19.2719 17.1151 19.8606C17.0302 19.9091 16.9237 19.9334 16.7977 19.9334C15.5667 19.9334 12.487 17.6096 9.50419 12.4436C9.31528 12.1162 9.13631 11.793 8.96625 11.4744C9.27028 10.8555 9.60994 10.2162 9.98878 9.5601C10.3318 8.96591 10.6761 8.4111 11.0187 7.89135C11.3396 7.88188 11.6659 7.87607 11.9999 7.87607C18.2442 7.87607 22.2301 9.58438 22.2301 10.7595C22.2301 11.3629 21.0864 12.114 19.3491 12.6689C19.5405 13.1681 19.715 13.6649 19.8676 14.1542C22.4142 13.3401 23.8124 12.1431 23.8124 10.7595C23.8125 7.88432 17.8312 6.32198 12.1493 6.29507ZM8.6174 8.76772C8.43787 9.07897 8.26387 9.39304 8.09559 9.7086C7.86065 9.19016 7.65084 8.68794 7.46794 8.20701C7.97372 8.12854 8.50847 8.06197 9.0705 8.00947C8.91656 8.25988 8.76487 8.51226 8.6174 8.76772ZM10.4797 11.0328C10.4797 11.992 11.26 12.7724 12.2192 12.7724C13.1783 12.7724 13.9587 11.992 13.9587 11.0328C13.9587 10.0737 13.1783 9.29329 12.2192 9.29329C11.26 9.29319 10.4797 10.0736 10.4797 11.0328Z" fill="white"/>
</svg>
