<svg width="24" height="24" viewBox="0 0 24 24" fill="none" xmlns="http://www.w3.org/2000/svg">
<g clip-path="url(#clip0_298_1556)">
<path fill-rule="evenodd" clip-rule="evenodd" d="M12.3988 12.8C12.3988 13.2412 12.7576 13.6 13.1988 13.6C13.64 13.6 13.9988 13.2412 13.9988 12.8C13.9988 12.3588 13.64 12 13.1988 12C12.7576 12 12.3988 12.3588 12.3988 12.8ZM12.3988 9.2C12.3988 8.7588 12.04 8.4 11.5988 8.4C11.1576 8.4 10.7988 8.7588 10.7988 9.2C10.7988 9.6412 11.1576 10 11.5988 10C12.04 10 12.3988 9.6412 12.3988 9.2ZM10.7988 14.4C10.578 14.4 10.3988 14.5796 10.3988 14.8C10.3988 15.0204 10.578 15.2 10.7988 15.2C11.0196 15.2 11.1988 15.0204 11.1988 14.8C11.1988 14.5796 11.0196 14.4 10.7988 14.4ZM10.7988 13.6C11.4604 13.6 11.9988 14.1384 11.9988 14.8C11.9988 15.4616 11.4604 16 10.7988 16C10.1372 16 9.59884 15.4616 9.59884 14.8C9.59884 14.1384 10.1372 13.6 10.7988 13.6ZM23.0608 23.2824C22.816 23.7452 22.2968 24 21.5988 24H2.39884C1.46244 24 1.08404 23.544 0.94204 23.272C0.67124 22.754 0.79084 22.0612 1.27044 21.3716L8.46604 10.578C8.46604 10.578 8.79884 10.0436 8.79884 9.2V3.6C8.79884 3.3792 8.97764 3.2 9.19884 3.2C9.42004 3.2 9.59884 3.3792 9.59884 3.6V9.2C9.59884 10.294 9.15284 10.9896 9.13364 11.0188L4.68124 17.6972C5.96444 17.8772 9.10044 18.2124 11.502 17.612C14.7612 16.7976 17.9612 17.5784 18.0956 17.612C18.31 17.6656 18.4404 17.8824 18.3868 18.0968C18.3332 18.3108 18.1148 18.4404 17.902 18.388C17.8712 18.3808 14.7564 17.6236 11.6956 18.388C10.586 18.6656 9.35124 18.758 8.20004 18.758C6.38844 18.758 4.78324 18.5296 4.19044 18.434L1.93164 21.822C1.62804 22.2584 1.52444 22.6596 1.65124 22.9016C1.78684 23.1612 2.17764 23.2 2.39884 23.2H21.5988C21.9804 23.2 22.256 23.0936 22.3536 22.9084C22.4772 22.6744 22.3708 22.2692 22.0684 21.8252L14.866 11.022C14.8468 10.9932 14.3988 10.3084 14.3988 9.2V2C14.3988 1.7792 14.5776 1.6 14.7988 1.6H15.1988V0.8H8.79884V1.6H13.1988C13.42 1.6 13.5988 1.7792 13.5988 2C13.5988 2.2208 13.42 2.4 13.1988 2.4H8.79884C8.35764 2.4 7.99884 2.0412 7.99884 1.6V0.8C7.99884 0.3588 8.35764 0 8.79884 0H15.1988C15.64 0 15.9988 0.3588 15.9988 0.8V1.6C15.9988 2.0412 15.64 2.4 15.1988 2.4V9.2C15.1988 10.0548 15.528 10.5732 15.5316 10.578L22.7316 21.378C23.216 22.0888 23.3336 22.7664 23.0608 23.2824Z" fill="white"/>
</g>
<defs>
<clipPath id="clip0_298_1556">
<rect width="24" height="24" fill="white"/>
</clipPath>
</defs>
</svg>
