<svg width="24" height="24" viewBox="0 0 24 24" fill="none" xmlns="http://www.w3.org/2000/svg">
<g clip-path="url(#clip0_298_1543)">
<path fill-rule="evenodd" clip-rule="evenodd" d="M5.01113 11.5747L6.29289 10.2929C6.68342 9.90236 7.31658 9.90236 7.70711 10.2929C8.09763 10.6834 8.09763 11.3166 7.70711 11.7071L4.70711 14.7071C4.51957 14.8946 4.26522 15 4 15C3.73478 15 3.48043 14.8946 3.29289 14.7071L0.292893 11.7071C-0.0976312 11.3166 -0.0976312 10.6834 0.292893 10.2929C0.683417 9.90236 1.31658 9.90236 1.70711 10.2929L3.00811 11.5939C3.22118 6.25933 7.61318 2 13 2C18.5229 2 23 6.47715 23 12C23 17.5228 18.5229 22 13 22C9.85818 22 7.0543 20.5499 5.22264 18.2864C4.87523 17.8571 4.94164 17.2274 5.37097 16.88C5.80029 16.5326 6.42997 16.599 6.77738 17.0283C8.24563 18.8427 10.4873 20 13 20C17.4183 20 21 16.4183 21 12C21 7.58172 17.4183 4 13 4C8.72442 4 5.23222 7.35412 5.01113 11.5747ZM13 5C13.5523 5 14 5.44772 14 6V11.5858L16.7071 14.2929C17.0976 14.6834 17.0976 15.3166 16.7071 15.7071C16.3166 16.0976 15.6834 16.0976 15.2929 15.7071L12.2929 12.7071C12.1054 12.5196 12 12.2652 12 12V6C12 5.44772 12.4477 5 13 5Z" fill="white"/>
</g>
<defs>
<clipPath id="clip0_298_1543">
<rect width="24" height="24" fill="white"/>
</clipPath>
</defs>
</svg>
