<svg width="48" height="48" viewBox="0 0 48 48" fill="none" xmlns="http://www.w3.org/2000/svg">
<g clip-path="url(#clip0_300_1975)">
<path d="M48.0001 18.84C48.0011 18.1883 47.8296 17.5481 47.5029 16.9842C47.1762 16.4204 46.706 15.9532 46.1401 15.63L25.9201 3.62999C25.3374 3.28999 24.6748 3.11084 24.0001 3.11084C23.3254 3.11084 22.6629 3.28999 22.0801 3.62999L1.83011 15.63C1.27053 15.962 0.806967 16.434 0.484994 16.9994C0.16302 17.5648 -0.00628662 18.2043 -0.00628662 18.855C-0.00628662 19.5057 0.16302 20.1452 0.484994 20.7106C0.806967 21.276 1.27053 21.7479 1.83011 22.08L7.59011 25.44V33.87C7.59358 34.5288 7.7665 35.1757 8.09224 35.7484C8.41799 36.321 8.8856 36.8003 9.45011 37.14L22.2001 44.49C22.7694 44.8052 23.4094 44.9705 24.0601 44.9705C24.7108 44.9705 25.3508 44.8052 25.9201 44.49L38.6701 37.14C39.2346 36.8003 39.7022 36.321 40.028 35.7484C40.3537 35.1757 40.5266 34.5288 40.5301 33.87V25.35L44.2501 23.16V31.32H48.0001V18.84ZM36.8101 33.84L24.0001 41.22L11.3401 33.87V27.66L22.0801 34.05C22.6648 34.3841 23.3266 34.5599 24.0001 34.5599C24.6736 34.5599 25.3354 34.3841 25.9201 34.05L36.7801 27.57L36.8101 33.84ZM24.0001 30.81L3.75011 18.81L24.0001 6.77999L44.2501 18.78L24.0001 30.81Z" fill="white"/>
</g>
<defs>
<clipPath id="clip0_300_1975">
<rect width="48" height="48" fill="white"/>
</clipPath>
</defs>
</svg>
