<svg width="48" height="48" viewBox="0 0 48 48" fill="none" xmlns="http://www.w3.org/2000/svg">
<path d="M44.2415 20.3906H32.9457C32.5978 20.3906 32.3906 20.778 32.3906 21.128V46.1221C32.3906 46.4702 32.5978 46.7344 32.9457 46.7344H44.2415C44.5894 46.7344 44.7656 46.4702 44.7656 46.1221V21.128C44.7656 20.778 44.5894 20.3906 44.2415 20.3906Z" fill="white"/>
<path d="M29.8594 34.3733C29.8594 34.0237 29.6118 33.7031 29.2624 33.7031H17.8718C17.5223 33.7031 17.2031 34.0238 17.2031 34.3733V46.2326C17.2031 46.582 17.5223 46.8281 17.8718 46.8281H29.2624C29.6119 46.8281 29.8594 46.582 29.8594 46.2326V34.3733Z" fill="white"/>
<path d="M14.8594 40.842C14.8594 40.4924 14.6119 40.1719 14.2624 40.1719H2.87175C2.52225 40.1719 2.20312 40.4925 2.20312 40.842V46.1389C2.20312 46.4883 2.52225 46.7344 2.87175 46.7344H14.2624C14.6119 46.7344 14.8594 46.4883 14.8594 46.1389V40.842Z" fill="white"/>
<path d="M5.57812 37.0743C5.89837 37.0743 6.23438 36.8145 6.23438 36.4942V33.6108C6.23438 29.373 9.60009 25.828 13.8379 25.828H17.6664C17.9869 25.828 18.2344 25.6655 18.2344 25.3452V21.4573C18.2344 16.9644 21.9019 13.1719 26.3948 13.1719H26.4844V14.5553C26.4844 14.7582 26.5898 14.9378 26.7781 15.0135C26.8382 15.0377 26.8927 15.0494 26.9545 15.0494C27.0863 15.0494 27.2109 14.9963 27.3064 14.8963L29.0491 13.0703C29.2318 12.879 29.2309 12.5793 29.048 12.3881L27.303 10.562C27.1626 10.4152 26.9663 10.3693 26.7783 10.4448C26.5898 10.5203 26.4844 10.7001 26.4844 10.9029V12.1406H26.3948C21.2621 12.1406 16.9219 16.3247 16.9219 21.4573V24.7969H13.8379C8.96034 24.7969 4.92188 28.7334 4.92188 33.6109V36.4943C4.92188 36.8145 5.25788 37.0743 5.57812 37.0743Z" fill="white"/>
<path d="M38.4844 3.77984C38.8046 3.77984 39.1406 3.52015 39.1406 3.19971V1.79131C39.1406 1.47087 38.8046 1.21118 38.4844 1.21118C38.1641 1.21118 37.8281 1.47087 37.8281 1.79131V3.19971C37.8281 3.52015 38.1641 3.77984 38.4844 3.77984Z" fill="white"/>
<path d="M41.1785 4.35151C41.263 4.39511 41.3535 4.41564 41.4425 4.41564C41.6532 4.41564 41.8565 4.30033 41.9592 4.09998L42.6114 2.82705C42.7574 2.54195 42.6446 2.19236 42.3594 2.0463C42.0743 1.89976 41.7248 2.01301 41.5787 2.29811L40.9267 3.57086C40.7806 3.85595 40.8934 4.20555 41.1785 4.35151Z" fill="white"/>
<path d="M35.1967 3.98559C35.2954 4.19596 35.5041 4.31962 35.7221 4.31962C35.8047 4.31962 35.8883 4.3019 35.968 4.26468C36.2581 4.12846 36.383 3.78309 36.2469 3.49293L35.641 2.20096C35.5052 1.91109 35.1598 1.78659 34.8696 1.92206C34.5795 2.05828 34.4546 2.40346 34.5907 2.69362L35.1967 3.98559Z" fill="white"/>
<path d="M44.1308 7.54688H42.9697L43.0517 6.22669C43.0736 5.86912 42.7895 5.57812 42.4312 5.57812H34.5677C34.2094 5.57812 33.9251 5.86912 33.9473 6.22669L34.0292 7.54688H33.0587C32.1516 7.54688 31.4153 8.30269 31.4153 9.20972C31.4153 9.69272 31.6263 10.1603 31.9976 10.4722L33.4381 11.6962L33.4383 11.7014L34.3706 12.4904C34.3704 12.4893 34.3703 12.4884 34.3701 12.4874L34.3706 12.4879L34.3732 12.4913C34.6798 14.0235 35.8109 15.2452 37.2748 15.6893C37.5656 15.7778 37.7659 16.0448 37.7872 16.3479L38.0027 18.5294C38.0113 18.6514 37.9147 18.7031 37.7923 18.7031H35.931C35.8144 18.7031 35.7655 18.902 35.7655 19.0182V19.4401C35.7655 19.5567 35.8144 19.5469 35.931 19.5469H41.0678C41.1843 19.5469 41.203 19.5567 41.203 19.4401V19.0182C41.203 18.902 41.1843 18.7031 41.0678 18.7031H39.2067C39.0844 18.7031 38.9877 18.6516 38.9962 18.5296L39.2119 16.3223C39.2332 16.0192 39.4332 15.7728 39.724 15.6843C41.1235 15.2593 42.2183 14.1094 42.5801 12.7031H42.5825L42.583 12.6948C42.5828 12.6959 42.581 12.6933 42.5806 12.6942L43.5469 11.8702V11.8688L45.1898 10.4814C45.559 10.1694 45.7707 9.69225 45.7707 9.20916C45.7708 8.30231 45.0356 7.54688 44.1308 7.54688ZM32.5418 9.83878C32.3625 9.687 32.259 9.44381 32.259 9.20981C32.259 8.76872 32.6177 8.39072 33.0586 8.39072H33.2331H33.2356H34.0815H34.079H34.0809L34.2571 11.2692L33.3663 10.5378L32.5418 9.83878ZM38.4755 12.8753C37.1843 12.8753 36.1374 11.8283 36.1374 10.5371C36.1374 9.24553 37.1843 8.19872 38.4755 8.19872C39.7671 8.19872 40.8139 9.24553 40.8139 10.5371C40.814 11.8283 39.7672 12.8753 38.4755 12.8753ZM44.6454 9.83878L43.6224 10.7036L42.7313 11.4362L42.9176 8.39072H42.9203H42.9178H43.7637H43.7663H44.1307C44.5716 8.39072 44.9281 8.76872 44.9281 9.20981C44.9281 9.44372 44.8247 9.687 44.6454 9.83878Z" fill="white"/>
<path d="M38.4755 11.6973C39.1162 11.6973 39.6356 11.1778 39.6356 10.5371C39.6356 9.89637 39.1162 9.37695 38.4755 9.37695C37.8347 9.37695 37.3153 9.89637 37.3153 10.5371C37.3153 11.1778 37.8347 11.6973 38.4755 11.6973Z" fill="white"/>
</svg>
