<svg width="48" height="48" viewBox="0 0 48 48" fill="none" xmlns="http://www.w3.org/2000/svg">
<path d="M34 21.64L27.82 24.928L30.18 34L24 28.26L17.82 34L20.18 24.928L14 21.64L21.64 21.264L24 14L26.36 21.264L34 21.64ZM26 8V4C26 3.46957 25.7893 2.96086 25.4142 2.58579C25.0391 2.21071 24.5304 2 24 2C23.4696 2 22.9609 2.21071 22.5858 2.58579C22.2107 2.96086 22 3.46957 22 4V8C22 8.53043 22.2107 9.03914 22.5858 9.41421C22.9609 9.78929 23.4696 10 24 10C24.5304 10 25.0391 9.78929 25.4142 9.41421C25.7893 9.03914 26 8.53043 26 8ZM22 40V44C22 44.5304 22.2107 45.0391 22.5858 45.4142C22.9609 45.7893 23.4696 46 24 46C24.5304 46 25.0391 45.7893 25.4142 45.4142C25.7893 45.0391 26 44.5304 26 44V40C26 39.4696 25.7893 38.9609 25.4142 38.5858C25.0391 38.2107 24.5304 38 24 38C23.4696 38 22.9609 38.2107 22.5858 38.5858C22.2107 38.9609 22 39.4696 22 40ZM39.556 8.444C39.1809 8.06906 38.6723 7.85843 38.142 7.85843C37.6117 7.85843 37.1031 8.06906 36.728 8.444L33.9 11.272C33.709 11.4565 33.5566 11.6772 33.4518 11.9212C33.347 12.1652 33.2918 12.4276 33.2895 12.6932C33.2872 12.9588 33.3378 13.2221 33.4384 13.4679C33.5389 13.7137 33.6874 13.937 33.8752 14.1248C34.063 14.3126 34.2863 14.4611 34.5321 14.5616C34.7779 14.6622 35.0412 14.7128 35.3068 14.7105C35.5724 14.7082 35.8348 14.653 36.0788 14.5482C36.3228 14.4434 36.5435 14.291 36.728 14.1L39.556 11.272C39.9309 10.8969 40.1416 10.3883 40.1416 9.858C40.1416 9.32767 39.9309 8.81906 39.556 8.444ZM8.444 39.556C8.81906 39.9309 9.32767 40.1416 9.858 40.1416C10.3883 40.1416 10.8969 39.9309 11.272 39.556L14.1 36.728C14.4643 36.3508 14.6659 35.8456 14.6613 35.3212C14.6568 34.7968 14.4465 34.2952 14.0756 33.9244C13.7048 33.5535 13.2032 33.3432 12.6788 33.3387C12.1544 33.3341 11.6492 33.5357 11.272 33.9L8.444 36.728C8.06906 37.1031 7.85843 37.6117 7.85843 38.142C7.85843 38.6723 8.06906 39.1809 8.444 39.556ZM44 22H40C39.4696 22 38.9609 22.2107 38.5858 22.5858C38.2107 22.9609 38 23.4696 38 24C38 24.5304 38.2107 25.0391 38.5858 25.4142C38.9609 25.7893 39.4696 26 40 26H44C44.5304 26 45.0391 25.7893 45.4142 25.4142C45.7893 25.0391 46 24.5304 46 24C46 23.4696 45.7893 22.9609 45.4142 22.5858C45.0391 22.2107 44.5304 22 44 22ZM4 26H8C8.53043 26 9.03914 25.7893 9.41421 25.4142C9.78929 25.0391 10 24.5304 10 24C10 23.4696 9.78929 22.9609 9.41421 22.5858C9.03914 22.2107 8.53043 22 8 22H4C3.46957 22 2.96086 22.2107 2.58579 22.5858C2.21071 22.9609 2 23.4696 2 24C2 24.5304 2.21071 25.0391 2.58579 25.4142C2.96086 25.7893 3.46957 26 4 26ZM36.728 39.556C37.1052 39.9203 37.6104 40.1219 38.1348 40.1173C38.6592 40.1128 39.1608 39.9025 39.5316 39.5316C39.9025 39.1608 40.1128 38.6592 40.1173 38.1348C40.1219 37.6104 39.9203 37.1052 39.556 36.728L36.728 33.9C36.3508 33.5357 35.8456 33.3341 35.3212 33.3387C34.7968 33.3432 34.2952 33.5535 33.9244 33.9244C33.5535 34.2952 33.3432 34.7968 33.3387 35.3212C33.3341 35.8456 33.5357 36.3508 33.9 36.728L36.728 39.556ZM14.1 14.1C14.4749 13.7249 14.6856 13.2163 14.6856 12.686C14.6856 12.1557 14.4749 11.6471 14.1 11.272L11.272 8.444C10.8948 8.07968 10.3896 7.8781 9.8652 7.88265C9.3408 7.88721 8.83918 8.09755 8.46836 8.46836C8.09755 8.83918 7.88721 9.3408 7.88265 9.8652C7.8781 10.3896 8.07968 10.8948 8.444 11.272L11.272 14.1C11.6471 14.4749 12.1557 14.6856 12.686 14.6856C13.2163 14.6856 13.7249 14.4749 14.1 14.1Z" fill="white"/>
</svg>
