<svg width="48" height="48" viewBox="0 0 48 48" fill="none" xmlns="http://www.w3.org/2000/svg">
<path d="M36.7138 2.72848C37.14 2.01812 38.0614 1.78777 38.7718 2.21398L38 3.50022C38.7718 2.21398 38.7718 2.21398 38.7718 2.21398L38.7746 2.21566L38.7776 2.21756L38.785 2.22206L38.8042 2.2339C38.819 2.24306 38.8374 2.25474 38.8594 2.26896C38.9034 2.29742 38.9616 2.33618 39.032 2.38544C39.1726 2.48388 39.3626 2.62488 39.5852 2.8104C40.0294 3.18058 40.6104 3.73356 41.189 4.48566C42.3546 6.00114 43.5 8.31492 43.5 11.5002C43.5 14.6855 42.3546 16.9993 41.189 18.5148C40.6104 19.2669 40.0294 19.8199 39.5852 20.19C39.3626 20.3756 39.1726 20.5166 39.032 20.615C38.9616 20.6642 38.9034 20.703 38.8594 20.7314C38.8484 20.7386 38.8384 20.745 38.8292 20.7508C38.82 20.7568 38.8116 20.762 38.8042 20.7666L38.785 20.7784L38.7776 20.7828L38.7746 20.7848C38.7746 20.7848 38.7718 20.7864 38 19.5002L38.7718 20.7864C38.0614 21.2126 37.14 20.9824 36.7138 20.272C36.2894 19.5646 36.516 18.648 37.2194 18.2194L37.2304 18.2123C37.245 18.2029 37.2726 18.1846 37.3116 18.1573C37.3898 18.1026 37.5124 18.0124 37.6648 17.8854C37.9706 17.6306 38.3896 17.2336 38.811 16.6857C39.6454 15.6011 40.5 13.9149 40.5 11.5002C40.5 9.08554 39.6454 7.39932 38.811 6.3148C38.3896 5.7669 37.9706 5.36988 37.6648 5.11506C37.5124 4.98806 37.3898 4.89782 37.3116 4.84314C37.2726 4.81584 37.245 4.79756 37.2304 4.78812L37.2194 4.78106C36.516 4.3525 36.2894 3.43586 36.7138 2.72848Z" fill="white"/>
<path d="M20 19.5002C24.4182 19.5002 28 15.9185 28 11.5002C28 7.08196 24.4182 3.50024 20 3.50024C15.5817 3.50024 12 7.08196 12 11.5002C12 15.9185 15.5817 19.5002 20 19.5002Z" fill="white"/>
<path d="M34.7718 6.21398C34.0614 5.78776 33.14 6.01812 32.7138 6.72848L33.2102 8.77548L33.2258 8.7861C33.2492 8.8025 33.2936 8.83494 33.3522 8.8838C33.4706 8.98238 33.6396 9.1419 33.811 9.3648C34.1454 9.79932 34.5 10.4855 34.5 11.5002C34.5 12.5149 34.1454 13.2011 33.811 13.6357C33.6396 13.8586 33.4706 14.0181 33.3522 14.1166C33.2936 14.1655 33.2492 14.1979 33.2258 14.2143L33.2102 14.225C32.514 14.6559 32.2912 15.5676 32.7138 16.272C33.14 16.9823 34.0614 17.2127 34.7718 16.7865L34 15.5002C34.7718 16.7865 34.7718 16.7865 34.7718 16.7865L34.7744 16.7849L34.7774 16.7831L34.7836 16.7793L34.7986 16.7701L34.837 16.7456C34.8664 16.7267 34.903 16.7022 34.9462 16.672C35.032 16.6119 35.144 16.5287 35.2728 16.4213C35.5294 16.2074 35.8604 15.8919 36.189 15.4648C36.8546 14.5993 37.5 13.2855 37.5 11.5002C37.5 9.71492 36.8546 8.40114 36.189 7.53566C35.8604 7.10856 35.5294 6.79308 35.2728 6.57914C35.144 6.47176 35.032 6.38856 34.9462 6.3284C34.903 6.29828 34.8664 6.2738 34.837 6.2548L34.7986 6.23038L34.7836 6.22118L34.7774 6.21734L34.7744 6.2156C34.7744 6.2156 34.7718 6.21398 34 7.50022L34.7718 6.21398Z" fill="white"/>
<path d="M4 34.5C4 39.4706 4 43.5 20 43.5C36 43.5 36 39.4706 36 34.5C36 29.5294 28.8366 25.5 20 25.5C11.1634 25.5 4 29.5294 4 34.5Z" fill="white"/>
</svg>
