<svg width="48" height="48" viewBox="0 0 48 48" fill="none" xmlns="http://www.w3.org/2000/svg">
<g clip-path="url(#clip0_300_2025)">
<path d="M44 9.00003C44.0015 7.70147 43.6418 6.42808 42.961 5.32225C42.2803 4.21642 41.3054 3.32175 40.1453 2.73827C38.9852 2.15478 37.6857 1.90549 36.392 2.01827C35.0984 2.13106 33.8616 2.60146 32.82 3.37689C31.7784 4.15231 30.973 5.2022 30.4939 6.40914C30.0147 7.61608 29.8808 8.93251 30.107 10.2112C30.3332 11.4899 30.9107 12.6805 31.7748 13.6498C32.6389 14.6192 33.7556 15.329 35 15.7V16C35 17.5913 34.3678 19.1175 33.2426 20.2427C32.1174 21.3679 30.5913 22 29 22H21C18.8397 22.021 16.7408 22.7206 15 24V15.7C16.6113 15.2196 17.9959 14.1753 18.9005 12.758C19.8051 11.3406 20.1694 9.64504 19.9267 7.98124C19.6839 6.31743 18.8504 4.7966 17.5785 3.69682C16.3066 2.59705 14.6814 1.99182 13 1.99182C11.3186 1.99182 9.69333 2.59705 8.42145 3.69682C7.14958 4.7966 6.31606 6.31743 6.07332 7.98124C5.83057 9.64504 6.19482 11.3406 7.09945 12.758C8.00409 14.1753 9.38866 15.2196 11 15.7V32.3C9.38866 32.7804 8.00409 33.8248 7.09945 35.2421C6.19482 36.6594 5.83057 38.355 6.07332 40.0188C6.31606 41.6826 7.14958 43.2035 8.42145 44.3032C9.69333 45.403 11.3186 46.0082 13 46.0082C14.6814 46.0082 16.3066 45.403 17.5785 44.3032C18.8504 43.2035 19.6839 41.6826 19.9267 40.0188C20.1694 38.355 19.8051 36.6594 18.9005 35.2421C17.9959 33.8248 16.6113 32.7804 15 32.3V32C15 30.4087 15.6321 28.8826 16.7573 27.7574C17.8826 26.6322 19.4087 26 21 26H29C31.6521 26 34.1957 24.9465 36.0711 23.0711C37.9464 21.1957 39 18.6522 39 16V15.7C40.4433 15.2697 41.7093 14.3854 42.61 13.1784C43.5108 11.9714 43.9982 10.5061 44 9.00003ZM9.99999 9.00003C9.99999 8.20438 10.3161 7.44132 10.8787 6.87871C11.4413 6.3161 12.2043 6.00003 13 6.00003C13.7956 6.00003 14.5587 6.3161 15.1213 6.87871C15.6839 7.44132 16 8.20438 16 9.00003C16 9.79568 15.6839 10.5587 15.1213 11.1213C14.5587 11.684 13.7956 12 13 12C12.2043 12 11.4413 11.684 10.8787 11.1213C10.3161 10.5587 9.99999 9.79568 9.99999 9.00003ZM16 39C16 39.5934 15.824 40.1734 15.4944 40.6667C15.1647 41.1601 14.6962 41.5446 14.148 41.7717C13.5999 41.9987 12.9967 42.0581 12.4147 41.9424C11.8328 41.8266 11.2982 41.5409 10.8787 41.1213C10.4591 40.7018 10.1734 40.1672 10.0576 39.5853C9.94187 39.0034 10.0013 38.4002 10.2283 37.852C10.4554 37.3038 10.8399 36.8353 11.3333 36.5056C11.8266 36.176 12.4066 36 13 36C13.3977 35.9861 13.7941 36.0541 14.1644 36.1999C14.5347 36.3457 14.871 36.5662 15.1524 36.8476C15.4338 37.129 15.6543 37.4654 15.8001 37.8357C15.9459 38.206 16.014 38.6023 16 39ZM37 12C36.6023 12.014 36.2059 11.946 35.8356 11.8001C35.4653 11.6543 35.129 11.4338 34.8476 11.1524C34.5662 10.871 34.3457 10.5347 34.1999 10.1644C34.0541 9.7941 33.986 9.39776 34 9.00003C34 8.20438 34.3161 7.44132 34.8787 6.87871C35.4413 6.3161 36.2043 6.00003 37 6.00003C37.7956 6.00003 38.5587 6.3161 39.1213 6.87871C39.6839 7.44132 40 8.20438 40 9.00003C40.014 9.39776 39.9459 9.7941 39.8001 10.1644C39.6543 10.5347 39.4338 10.871 39.1524 11.1524C38.871 11.4338 38.5346 11.6543 38.1644 11.8001C37.7941 11.946 37.3977 12.014 37 12Z" fill="white"/>
</g>
<defs>
<clipPath id="clip0_300_2025">
<rect width="48" height="48" fill="white"/>
</clipPath>
</defs>
</svg>
