<svg width="62" height="56" viewBox="0 0 62 56" fill="none" xmlns="http://www.w3.org/2000/svg">
<path d="M8.90548 24.5313L17.0522 10.4208C18.2111 8.41348 20.3529 7.17694 22.6707 7.17694L38.9642 7.17694C41.282 7.17694 43.4237 8.41348 44.5826 10.4208L52.7294 24.5313C53.8883 26.5386 53.8883 29.0117 52.7294 31.019L44.5826 45.1295C43.4237 47.1368 41.282 48.3734 38.9642 48.3734L22.6707 48.3734C20.3529 48.3734 18.2111 47.1368 17.0522 45.1295L8.90548 31.019C7.74657 29.0117 7.74657 26.5386 8.90548 24.5313Z" fill="#fff"/>
<path fill-rule="evenodd" clip-rule="evenodd" d="M1.08647 23.7204C-0.362158 26.2295 -0.362156 29.3208 1.08647 31.8299L12.4404 51.4955C13.889 54.0046 16.5662 55.5503 19.4635 55.5503L42.1714 55.5503C45.0686 55.5503 47.7458 54.0046 49.1944 51.4955L60.5484 31.8299C61.997 29.3208 61.997 26.2295 60.5484 23.7204L49.1944 4.05477C47.7458 1.54568 45.0686 7.62939e-06 42.1714 7.62939e-06L19.4635 7.62939e-06C16.5662 7.62939e-06 13.889 1.54568 12.4404 4.05478L1.08647 23.7204ZM7.50086 31.8299C6.05224 29.3208 6.05224 26.2295 7.50086 23.7204L15.6476 9.6098C17.0962 7.1007 19.7734 5.55503 22.6707 5.55503L38.9642 5.55503C41.8614 5.55503 44.5386 7.1007 45.9872 9.6098L54.134 23.7204C55.5826 26.2295 55.5826 29.3208 54.134 31.8299L45.9872 45.9405C44.5386 48.4496 41.8614 49.9953 38.9642 49.9953L22.6707 49.9953C19.7734 49.9953 17.0962 48.4496 15.6476 45.9405L7.50086 31.8299Z" fill="#fff"/>
<g clip-path="url(#clip0_558_22)">
<rect width="24" height="24" transform="translate(19 16)" fill="#fff"/>
<path d="M43 25.42C43.0005 25.0942 42.9147 24.774 42.7514 24.4921C42.588 24.2102 42.353 23.9766 42.07 23.815L31.96 17.815C31.6687 17.645 31.3374 17.5554 31 17.5554C30.6627 17.5554 30.3314 17.645 30.04 17.815L19.915 23.815C19.6352 23.981 19.4035 24.217 19.2425 24.4997C19.0815 24.7824 18.9968 25.1022 18.9968 25.4275C18.9968 25.7528 19.0815 26.0726 19.2425 26.3553C19.4035 26.638 19.6352 26.874 19.915 27.04L22.795 28.72V32.935C22.7968 33.2644 22.8832 33.5878 23.0461 33.8742C23.209 34.1605 23.4428 34.4001 23.725 34.57L30.1 38.245C30.3847 38.4026 30.7047 38.4853 31.03 38.4853C31.3554 38.4853 31.6754 38.4026 31.96 38.245L38.335 34.57C38.6173 34.4001 38.8511 34.1605 39.014 33.8742C39.1768 33.5878 39.2633 33.2644 39.265 32.935V28.675L41.125 27.58V31.66H43V25.42ZM37.405 32.92L31 36.61L24.67 32.935V29.83L30.04 33.025C30.3324 33.1921 30.6633 33.2799 31 33.2799C31.3368 33.2799 31.6677 33.1921 31.96 33.025L37.39 29.785L37.405 32.92ZM31 31.405L20.875 25.405L31 19.39L41.125 25.39L31 31.405Z" fill="#F75929"/>
</g>
<defs>
<clipPath id="clip0_558_22">
<rect width="24" height="24" fill="#F75929" transform="translate(19 16)"/>
</clipPath>
</defs>
</svg>
