<svg width="24" height="24" viewBox="0 0 24 24" fill="none" xmlns="http://www.w3.org/2000/svg">
<g clip-path="url(#clip0_298_1734)">
<path d="M9.29032 1.93549C5.23471 1.93549 1.93549 5.23471 1.93549 9.29032C1.93549 13.3459 5.23471 16.6452 9.29032 16.6452C13.3459 16.6452 16.6452 13.3459 16.6452 9.29032C16.6452 5.23471 13.3459 1.93549 9.29032 1.93549ZM9.29032 15.871C5.66168 15.871 2.70968 12.919 2.70968 9.29032C2.70968 5.66168 5.66168 2.70968 9.29032 2.70968C12.919 2.70968 15.871 5.66168 15.871 9.29032C15.871 12.919 12.919 15.871 9.29032 15.871Z" fill="white"/>
<path d="M23.3253 20.0683L18.7409 15.4839L19.6285 14.5963L19.0812 14.0489L18.1935 14.9365L17.2804 14.0234C18.1049 12.636 18.5806 11.0179 18.5806 9.29032C18.5806 4.16787 14.4128 0 9.29032 0C4.16787 0 0 4.16787 0 9.29032C0 14.4128 4.16787 18.5806 9.29032 18.5806C11.0179 18.5806 12.636 18.1049 14.0234 17.2804L14.9365 18.1935L14.0489 19.0812L14.5963 19.6285L15.4839 18.7409L20.0683 23.3253C20.5034 23.7604 21.0817 24 21.6968 24C22.9668 24 24 22.9668 24 21.6968C24 21.0817 23.7604 20.5034 23.3253 20.0683ZM9.29032 17.8065C4.59445 17.8065 0.774194 13.9862 0.774194 9.29032C0.774194 4.59445 4.59445 0.774194 9.29032 0.774194C13.9862 0.774194 17.8065 4.59445 17.8065 9.29032C17.8065 13.9862 13.9862 17.8065 9.29032 17.8065ZM14.6845 16.8468C15.5187 16.2495 16.2495 15.5187 16.8468 14.6845L17.6462 15.4839L15.4839 17.6462L14.6845 16.8468ZM21.6968 23.2258C21.2884 23.2258 20.9044 23.0667 20.6156 22.7779L16.0312 18.1935L18.1935 16.0312L22.7779 20.6156C23.0667 20.9044 23.2258 21.2884 23.2258 21.6968C23.2258 22.5399 22.5399 23.2258 21.6968 23.2258Z" fill="white"/>
<path d="M13.5484 6.19354C12.6945 6.19354 12 6.88799 12 7.74193C12 8.59587 12.6945 9.29032 13.5484 9.29032C14.4023 9.29032 15.0968 8.59587 15.0968 7.74193C15.0968 6.88799 14.4023 6.19354 13.5484 6.19354ZM13.5484 8.51612C13.1214 8.51612 12.7742 8.1689 12.7742 7.74193C12.7742 7.31496 13.1214 6.96774 13.5484 6.96774C13.9754 6.96774 14.3226 7.31496 14.3226 7.74193C14.3226 8.1689 13.9754 8.51612 13.5484 8.51612Z" fill="white"/>
<path d="M12.8392 9.84967L12.2632 10.7137C12.0488 10.5515 11.7848 10.4516 11.4956 10.4516C11.4039 10.4516 11.3141 10.4648 11.2258 10.4837V9.67741H10.4516V10.8677C10.2078 11.0009 9.94723 11.0953 9.67743 11.1507V10.0645H8.90323V11.203C8.54285 11.179 8.18749 11.0923 7.86001 10.9339L8.10891 10.1872L7.37498 9.94219L7.1733 10.5468C7.02272 10.4861 6.86246 10.4516 6.69794 10.4516C6.52452 10.4516 6.35923 10.4868 6.20827 10.5499L5.74143 9.84967L5.0973 10.279L5.61562 11.0566C5.4933 11.2529 5.41936 11.4824 5.41936 11.7302C5.41936 11.9233 5.45769 12.1123 5.5262 12.288L4.47214 12.8148L4.81859 13.5073L5.98569 12.924C6.04414 12.9724 6.1053 13.0173 6.17111 13.0568L6.38169 13.183C6.40723 13.1984 6.43394 13.2112 6.45949 13.2263L5.87188 14.1077L6.51601 14.537L7.16401 13.5654C7.45085 13.6784 7.74582 13.7683 8.04775 13.8294L7.75433 15.0027L8.50491 15.1901L8.82117 13.9258C8.91253 13.9308 9.00427 13.9355 9.09678 13.9355C9.16143 13.9355 9.22569 13.9312 9.29033 13.9289V15.0968H10.0645V13.8437C10.2383 13.8112 10.4102 13.7706 10.5798 13.721L10.8503 14.8037L11.6009 14.6164L11.3087 13.447C11.4805 13.3676 11.6493 13.2817 11.8123 13.1837L12.0228 13.0575C12.0434 13.0452 12.0616 13.0301 12.0817 13.0169L12.8876 13.8228L13.435 13.2755L12.5985 12.439C12.7103 12.2214 12.7742 11.9799 12.7742 11.7302C12.7742 11.6195 12.7556 11.5134 12.7289 11.4108L13.4834 10.2793L12.8392 9.84967ZM11.6245 12.3933L11.4139 12.5195C10.0146 13.3595 8.17898 13.3595 6.77923 12.5195L6.56865 12.3933C6.33756 12.2539 6.19356 12 6.19356 11.7302C6.19356 11.4519 6.41962 11.2258 6.69794 11.2258C6.79781 11.2258 6.89459 11.2548 6.97781 11.3106L7.10943 11.3984C8.29046 12.1854 9.90388 12.1854 11.0849 11.3984L11.2165 11.3106C11.299 11.2548 11.3958 11.2258 11.4956 11.2258C11.7739 11.2258 12 11.4519 12 11.7302C12 12 11.856 12.2543 11.6245 12.3933Z" fill="white"/>
<path d="M6.58064 7.35484C7.43458 7.35484 8.12903 6.66039 8.12903 5.80645C8.12903 5.52 8.04581 5.25523 7.90955 5.0249L8.56297 4.37148C8.63535 4.2991 8.73484 4.25807 8.83664 4.25807H9.67742C9.8911 4.25807 10.0645 4.43148 10.0645 4.64516V5.41936C10.0645 5.63303 9.8911 5.80645 9.67742 5.80645C9.03716 5.80645 8.51613 6.32748 8.51613 6.96774V7.74194C8.51613 8.38219 9.03716 8.90323 9.67742 8.90323H11.2258V8.12903H9.67742C9.46374 8.12903 9.29032 7.95561 9.29032 7.74194V6.96774C9.29032 6.75407 9.46374 6.58065 9.67742 6.58065C10.3177 6.58065 10.8387 6.05961 10.8387 5.41936V4.64516C10.8387 4.0049 10.3177 3.48387 9.67742 3.48387H8.83664C8.52658 3.48387 8.23471 3.60503 8.01561 3.82413L7.36219 4.47755C7.13187 4.34129 6.8671 4.25807 6.58064 4.25807C5.72671 4.25807 5.03226 4.95252 5.03226 5.80645C5.03226 6.66039 5.72671 7.35484 6.58064 7.35484ZM6.58064 5.03226C7.00761 5.03226 7.35484 5.37948 7.35484 5.80645C7.35484 6.23342 7.00761 6.58065 6.58064 6.58065C6.15368 6.58065 5.80645 6.23342 5.80645 5.80645C5.80645 5.37948 6.15368 5.03226 6.58064 5.03226Z" fill="white"/>
<path d="M4.64515 8.12903H3.48386V8.90322H4.64515V8.12903Z" fill="white"/>
<path d="M7.74195 8.12903H6.58066V8.90322H7.74195V8.12903Z" fill="white"/>
</g>
<defs>
<clipPath id="clip0_298_1734">
<rect width="24" height="24" fill="white"/>
</clipPath>
</defs>
</svg>
