<svg width="100" height="100" viewBox="0 0 100 100" fill="none" xmlns="http://www.w3.org/2000/svg">
<path d="M50.0001 8.33331C41.7592 8.33331 33.7033 10.777 26.8513 15.3554C19.9993 19.9338 14.6587 26.4412 11.5051 34.0548C8.35143 41.6684 7.52629 50.0462 9.13401 58.1287C10.7417 66.2113 14.7101 73.6356 20.5373 79.4628C26.3645 85.29 33.7888 89.2583 41.8713 90.866C49.9538 92.4738 58.3316 91.6486 65.9452 88.495C73.5588 85.3413 80.0662 80.0008 84.6446 73.1488C89.223 66.2967 91.6667 58.2409 91.6667 50C91.6667 44.5282 90.589 39.1101 88.495 34.0548C86.4011 28.9996 83.3319 24.4063 79.4628 20.5372C75.5937 16.6681 71.0004 13.5989 65.9452 11.505C60.89 9.41105 55.4718 8.33331 50.0001 8.33331ZM41.6667 68.75V31.25L66.6667 50L41.6667 68.75Z" fill="#00A0A8"/>
</svg>
