<svg width="62" height="56" viewBox="0 0 62 56" fill="none" xmlns="http://www.w3.org/2000/svg">
<path d="M8.90548 24.5313L17.0522 10.4208C18.2111 8.41348 20.3529 7.17694 22.6707 7.17694L38.9642 7.17694C41.282 7.17694 43.4237 8.41348 44.5826 10.4208L52.7294 24.5313C53.8883 26.5386 53.8883 29.0117 52.7294 31.019L44.5826 45.1295C43.4237 47.1368 41.282 48.3734 38.9642 48.3734L22.6707 48.3734C20.3529 48.3734 18.2111 47.1368 17.0522 45.1295L8.90548 31.019C7.74657 29.0117 7.74657 26.5386 8.90548 24.5313Z" fill="#fff"/>
<path fill-rule="evenodd" clip-rule="evenodd" d="M1.08647 23.7204C-0.362158 26.2295 -0.362156 29.3208 1.08647 31.8299L12.4404 51.4955C13.889 54.0046 16.5662 55.5503 19.4635 55.5503L42.1714 55.5503C45.0686 55.5503 47.7458 54.0046 49.1944 51.4955L60.5484 31.8299C61.997 29.3208 61.997 26.2295 60.5484 23.7204L49.1944 4.05477C47.7458 1.54568 45.0686 7.62939e-06 42.1714 7.62939e-06L19.4635 7.62939e-06C16.5662 7.62939e-06 13.889 1.54568 12.4404 4.05478L1.08647 23.7204ZM7.50086 31.8299C6.05224 29.3208 6.05224 26.2295 7.50086 23.7204L15.6476 9.6098C17.0962 7.1007 19.7734 5.55503 22.6707 5.55503L38.9642 5.55503C41.8614 5.55503 44.5386 7.1007 45.9872 9.6098L54.134 23.7204C55.5826 26.2295 55.5826 29.3208 54.134 31.8299L45.9872 45.9405C44.5386 48.4496 41.8614 49.9953 38.9642 49.9953L22.6707 49.9953C19.7734 49.9953 17.0962 48.4496 15.6476 45.9405L7.50086 31.8299Z" fill="#fff"/>
<path d="M39 31.76H31.704L37.88 25.536C37.9366 25.4808 37.9816 25.4149 38.0123 25.3421C38.043 25.2693 38.0588 25.191 38.0588 25.112C38.0588 25.033 38.043 24.9547 38.0123 24.8819C37.9816 24.8091 37.9366 24.7432 37.88 24.688L35.064 21.872C35.0088 21.8154 34.9429 21.7704 34.87 21.7397C34.7972 21.709 34.719 21.6931 34.64 21.6931C34.5609 21.6931 34.4827 21.709 34.4099 21.7397C34.337 21.7704 34.2711 21.8154 34.216 21.872L32.616 23.472L33.48 21.296C33.5114 21.2236 33.528 21.1457 33.5288 21.0668C33.5297 20.9879 33.5148 20.9097 33.485 20.8366C33.4552 20.7636 33.4111 20.6973 33.3552 20.6415C33.2994 20.5858 33.233 20.5417 33.16 20.512L29.4 19.104C29.3266 19.0727 29.2477 19.0566 29.168 19.0566C29.0882 19.0566 29.0093 19.0727 28.936 19.104C28.7891 19.1693 28.674 19.2901 28.616 19.44L27.656 21.728V20.24C27.656 20.0787 27.5919 19.9241 27.4779 19.8101C27.3639 19.6961 27.2092 19.632 27.048 19.632H23C22.9209 19.632 22.8425 19.6478 22.7697 19.6785C22.6968 19.7093 22.6308 19.7543 22.5756 19.811C22.5204 19.8677 22.4771 19.9348 22.4483 20.0085C22.4196 20.0822 22.4058 20.1609 22.408 20.24V32.16C22.4005 32.1916 22.4005 32.2244 22.408 32.256C22.408 32.256 22.408 32.256 22.408 32.352V36.352C22.408 36.509 22.4703 36.6596 22.5814 36.7706C22.6924 36.8816 22.8429 36.944 23 36.944H39C39.157 36.944 39.3075 36.8816 39.4186 36.7706C39.5296 36.6596 39.592 36.509 39.592 36.352V32.352C39.5942 32.2737 39.5804 32.1957 39.5514 32.1229C39.5224 32.05 39.4789 31.9839 39.4235 31.9285C39.3681 31.8731 39.3019 31.8295 39.2291 31.8006C39.1563 31.7716 39.0783 31.7578 39 31.76ZM34.632 23.136L36.616 25.12L30.008 31.76H26.024L34.632 23.136ZM29.48 20.432L32.072 21.488L30.392 25.648L25.32 30.752L29.48 20.432ZM26.456 20.832V24.64L23.672 31.648V20.832H26.456ZM38.328 35.744H23.672V32.928H38.328V35.744Z" fill="#F75929"/>
<path d="M25.704 35.344C25.9047 35.3472 26.1018 35.2903 26.27 35.1808C26.4382 35.0713 26.5698 34.914 26.6481 34.7292C26.7264 34.5444 26.7477 34.3404 26.7093 34.1434C26.6709 33.9464 26.5746 33.7653 26.4327 33.6234C26.2907 33.4814 26.1097 33.3851 25.9127 33.3467C25.7157 33.3083 25.5117 33.3297 25.3268 33.4079C25.142 33.4862 24.9848 33.6179 24.8752 33.786C24.7657 33.9542 24.7089 34.1513 24.712 34.352C24.7162 34.6138 24.822 34.8637 25.0072 35.0489C25.1923 35.234 25.4422 35.3399 25.704 35.344ZM25.704 34C25.7503 34 25.796 34.0091 25.8387 34.0268C25.8815 34.0445 25.9203 34.0704 25.9529 34.1031C25.9856 34.1358 26.0116 34.1746 26.0292 34.2173C26.0469 34.26 26.056 34.3058 26.056 34.352C26.0561 34.3975 26.0469 34.4425 26.029 34.4844C26.0111 34.5262 25.985 34.564 25.952 34.5954C25.9191 34.6268 25.8802 34.6513 25.8375 34.6672C25.7949 34.6831 25.7495 34.6902 25.704 34.688C25.6149 34.688 25.5295 34.6526 25.4665 34.5896C25.4034 34.5266 25.368 34.4411 25.368 34.352C25.3659 34.3065 25.373 34.2611 25.3889 34.2185C25.4048 34.1759 25.4292 34.1369 25.4606 34.104C25.492 34.0711 25.5298 34.0449 25.5717 34.027C25.6135 34.0091 25.6585 33.9999 25.704 34Z" fill="#F75929"/>
</svg>
