<svg width="62" height="56" viewBox="0 0 62 56" fill="none" xmlns="http://www.w3.org/2000/svg">
<path d="M8.90548 24.5313L17.0522 10.4208C18.2111 8.41348 20.3529 7.17694 22.6707 7.17694L38.9642 7.17694C41.282 7.17694 43.4237 8.41348 44.5826 10.4208L52.7294 24.5313C53.8883 26.5386 53.8883 29.0117 52.7294 31.019L44.5826 45.1295C43.4237 47.1368 41.282 48.3734 38.9642 48.3734L22.6707 48.3734C20.3529 48.3734 18.2111 47.1368 17.0522 45.1295L8.90548 31.019C7.74657 29.0117 7.74657 26.5386 8.90548 24.5313Z" fill="#fff"/>
<path fill-rule="evenodd" clip-rule="evenodd" d="M1.08647 23.7204C-0.362158 26.2295 -0.362156 29.3208 1.08647 31.8299L12.4404 51.4955C13.889 54.0046 16.5662 55.5503 19.4635 55.5503L42.1714 55.5503C45.0686 55.5503 47.7458 54.0046 49.1944 51.4955L60.5484 31.8299C61.997 29.3208 61.997 26.2295 60.5484 23.7204L49.1944 4.05477C47.7458 1.54568 45.0686 7.62939e-06 42.1714 7.62939e-06L19.4635 7.62939e-06C16.5662 7.62939e-06 13.889 1.54568 12.4404 4.05478L1.08647 23.7204ZM7.50086 31.8299C6.05224 29.3208 6.05224 26.2295 7.50086 23.7204L15.6476 9.6098C17.0962 7.1007 19.7734 5.55503 22.6707 5.55503L38.9642 5.55503C41.8614 5.55503 44.5386 7.1007 45.9872 9.6098L54.134 23.7204C55.5826 26.2295 55.5826 29.3208 54.134 31.8299L45.9872 45.9405C44.5386 48.4496 41.8614 49.9953 38.9642 49.9953L22.6707 49.9953C19.7734 49.9953 17.0962 48.4496 15.6476 45.9405L7.50086 31.8299Z" fill="#fff"/>
<g clip-path="url(#clip0_448_714)">
<path d="M27.5001 18H22.5001C22.3018 17.9811 22.1039 18.0402 21.9484 18.1646C21.7928 18.289 21.6918 18.4691 21.6667 18.6667V38H28.3334V18.6667C28.3083 18.4691 28.2073 18.289 28.0518 18.1646C27.8962 18.0402 27.6984 17.9811 27.5001 18Z" fill="#F75929"/>
<path d="M41.5134 36.7266L36.8867 24.5266C36.8557 24.4447 36.8088 24.3698 36.7487 24.306C36.6887 24.2423 36.6167 24.191 36.5368 24.1551C36.457 24.1192 36.3708 24.0994 36.2833 24.0968C36.1958 24.0942 36.1086 24.1088 36.0267 24.1399L33.6667 25.0599V21.9999C33.6667 21.8231 33.5965 21.6535 33.4715 21.5285C33.3465 21.4035 33.1769 21.3333 33.0001 21.3333H29.6667V37.9999H33.6667V25.7933L38.2867 37.9999L41.5134 36.7266Z" fill="#F75929"/>
</g>
<defs>
<clipPath id="clip0_448_714">
<rect width="24" height="24" fill="#F75929" transform="translate(19 16)"/>
</clipPath>
</defs>
</svg>
