<svg width="360" height="172" viewBox="0 0 360 172" fill="none" xmlns="http://www.w3.org/2000/svg">
<mask id="path-1-inside-1_558_18" fill="#F75929">
<path fill-rule="evenodd" clip-rule="evenodd" d="M24 0C10.7452 0 0 10.7452 0 24V148C0 161.255 10.7452 172 24 172H145.152C153.988 172 160.657 164.045 166.111 157.093C169.556 152.701 174.503 149.949 180 149.949C185.497 149.949 190.444 152.701 193.889 157.093C199.343 164.045 206.012 172 214.848 172H336C349.255 172 360 161.255 360 148V24C360 10.7452 349.255 0 336 0H24Z"/>
</mask>
<path fill-rule="evenodd" clip-rule="evenodd" d="M24 0C10.7452 0 0 10.7452 0 24V148C0 161.255 10.7452 172 24 172H145.152C153.988 172 160.657 164.045 166.111 157.093C169.556 152.701 174.503 149.949 180 149.949C185.497 149.949 190.444 152.701 193.889 157.093C199.343 164.045 206.012 172 214.848 172H336C349.255 172 360 161.255 360 148V24C360 10.7452 349.255 0 336 0H24Z" fill="#F75929"/>
<path d="M193.889 157.093L193.102 157.71L193.889 157.093ZM166.111 157.093L165.324 156.476L166.111 157.093ZM1 24C1 11.2975 11.2975 1 24 1V-1C10.1929 -1 -1 10.1929 -1 24H1ZM1 148V24H-1V148H1ZM24 171C11.2975 171 1 160.703 1 148H-1C-1 161.807 10.1929 173 24 173V171ZM145.152 171H24V173H145.152V171ZM166.898 157.71C170.183 153.523 174.855 150.949 180 150.949V148.949C174.152 148.949 168.93 151.88 165.324 156.476L166.898 157.71ZM180 150.949C185.145 150.949 189.817 153.523 193.102 157.71L194.676 156.476C191.07 151.88 185.848 148.949 180 148.949V150.949ZM336 171H214.848V173H336V171ZM359 148C359 160.703 348.703 171 336 171V173C349.807 173 361 161.807 361 148H359ZM359 24V148H361V24H359ZM336 1C348.703 1 359 11.2975 359 24H361C361 10.1929 349.807 -1 336 -1V1ZM24 1H336V-1H24V1ZM193.102 157.71C195.827 161.183 198.917 164.99 202.463 167.924C206.016 170.864 210.111 173 214.848 173V171C210.748 171 207.091 169.158 203.738 166.383C200.377 163.602 197.405 159.955 194.676 156.476L193.102 157.71ZM145.152 173C149.889 173 153.984 170.864 157.537 167.924C161.083 164.99 164.173 161.183 166.898 157.71L165.324 156.476C162.595 159.955 159.623 163.602 156.262 166.383C152.908 169.158 149.252 171 145.152 171V173Z" fill="#F75929" mask="url(#path-1-inside-1_558_18)"/>
</svg>
