<svg width="62" height="56" viewBox="0 0 62 56" fill="none" xmlns="http://www.w3.org/2000/svg">
<path d="M8.90548 24.5313L17.0522 10.4208C18.2111 8.41348 20.3529 7.17694 22.6707 7.17694L38.9642 7.17694C41.282 7.17694 43.4237 8.41348 44.5826 10.4208L52.7294 24.5313C53.8883 26.5386 53.8883 29.0117 52.7294 31.019L44.5826 45.1295C43.4237 47.1368 41.282 48.3734 38.9642 48.3734L22.6707 48.3734C20.3529 48.3734 18.2111 47.1368 17.0522 45.1295L8.90548 31.019C7.74657 29.0117 7.74657 26.5386 8.90548 24.5313Z" fill="#fff"/>
<path fill-rule="evenodd" clip-rule="evenodd" d="M1.08647 23.7204C-0.362158 26.2295 -0.362156 29.3208 1.08647 31.8299L12.4404 51.4955C13.889 54.0046 16.5662 55.5503 19.4635 55.5503L42.1714 55.5503C45.0686 55.5503 47.7458 54.0046 49.1944 51.4955L60.5484 31.8299C61.997 29.3208 61.997 26.2295 60.5484 23.7204L49.1944 4.05477C47.7458 1.54568 45.0686 7.62939e-06 42.1714 7.62939e-06L19.4635 7.62939e-06C16.5662 7.62939e-06 13.889 1.54568 12.4404 4.05478L1.08647 23.7204ZM7.50086 31.8299C6.05224 29.3208 6.05224 26.2295 7.50086 23.7204L15.6476 9.6098C17.0962 7.1007 19.7734 5.55503 22.6707 5.55503L38.9642 5.55503C41.8614 5.55503 44.5386 7.1007 45.9872 9.6098L54.134 23.7204C55.5826 26.2295 55.5826 29.3208 54.134 31.8299L45.9872 45.9405C44.5386 48.4496 41.8614 49.9953 38.9642 49.9953L22.6707 49.9953C19.7734 49.9953 17.0962 48.4496 15.6476 45.9405L7.50086 31.8299Z" fill="#fff"/>
<g clip-path="url(#clip0_448_729)">
<path d="M42.508 36.9906H41.4999V35.4958C41.4999 35.2253 41.2786 35.0041 41.0082 35.0041H39.4739V23.5075H42.5031C42.7244 23.5075 42.9211 23.355 42.9801 23.1387C43.0391 22.9223 42.9407 22.6961 42.749 22.583L31.2421 16.0627C31.0897 15.9791 30.9077 15.9791 30.7553 16.0627L19.2484 22.583C19.0516 22.6912 18.9583 22.9223 19.0173 23.1386C19.0763 23.355 19.268 23.5074 19.4943 23.5074H22.5234V35.004H20.9892C20.7187 35.004 20.4974 35.2253 20.4974 35.4957V36.9906H19.4943C19.2238 36.9906 19.0025 37.2118 19.0025 37.4823V39.5082C19.0025 39.7786 19.2238 40 19.4943 40H42.508C42.7784 40 42.9998 39.7787 42.9998 39.5082V37.4823C42.9998 37.2119 42.7785 36.9906 42.508 36.9906ZM21.358 22.524L31.0012 17.0609L40.6443 22.524H21.358ZM38.4954 23.5075V35.0041H36.4792V23.5075H38.4954ZM35.4957 23.5075V35.0041H32.9927V23.5075H35.4957ZM32.0092 23.5075V35.0041H29.993V23.5075H32.0092ZM29.0096 23.5075V35.0041H26.5066V23.5075H29.0096ZM25.5231 23.5075V35.0041H23.5069V23.5075H25.5231ZM21.4858 35.9875H40.5164V36.9907H21.4858V35.9875ZM42.0163 39.0165H19.986V37.9741H41.0082H42.0163L42.0163 39.0165Z" fill="#F75929"/>
<path d="M34.7287 20.5669L31.2422 18.5803C31.0898 18.4967 30.9079 18.4967 30.7554 18.5803L27.2689 20.5669C27.0771 20.68 26.9788 20.9062 27.0378 21.1225C27.0968 21.3339 27.2935 21.4864 27.5148 21.4864H34.4878C34.7091 21.4864 34.9058 21.3339 34.9599 21.1225C35.0189 20.9062 34.9205 20.675 34.7287 20.5669ZM29.3736 20.5029L31.0062 19.5736L32.6339 20.5029H29.3736Z" fill="#F75929"/>
</g>
<defs>
<clipPath id="clip0_448_729">
<rect width="24" height="24" fill="#F75929" transform="translate(19 16)"/>
</clipPath>
</defs>
</svg>
