<svg width="62" height="56" viewBox="0 0 62 56" fill="none" xmlns="http://www.w3.org/2000/svg">
<path d="M8.90548 24.5313L17.0522 10.4208C18.2111 8.41348 20.3529 7.17694 22.6707 7.17694L38.9642 7.17694C41.282 7.17694 43.4237 8.41348 44.5826 10.4208L52.7294 24.5313C53.8883 26.5386 53.8883 29.0117 52.7294 31.019L44.5826 45.1295C43.4237 47.1368 41.282 48.3734 38.9642 48.3734L22.6707 48.3734C20.3529 48.3734 18.2111 47.1368 17.0522 45.1295L8.90548 31.019C7.74657 29.0117 7.74657 26.5386 8.90548 24.5313Z" fill="#fff"/>
<path fill-rule="evenodd" clip-rule="evenodd" d="M1.08647 23.7204C-0.362158 26.2295 -0.362156 29.3208 1.08647 31.8299L12.4404 51.4955C13.889 54.0046 16.5662 55.5503 19.4635 55.5503L42.1714 55.5503C45.0686 55.5503 47.7458 54.0046 49.1944 51.4955L60.5484 31.8299C61.997 29.3208 61.997 26.2295 60.5484 23.7204L49.1944 4.05477C47.7458 1.54568 45.0686 7.62939e-06 42.1714 7.62939e-06L19.4635 7.62939e-06C16.5662 7.62939e-06 13.889 1.54568 12.4404 4.05478L1.08647 23.7204ZM7.50086 31.8299C6.05224 29.3208 6.05224 26.2295 7.50086 23.7204L15.6476 9.6098C17.0962 7.1007 19.7734 5.55503 22.6707 5.55503L38.9642 5.55503C41.8614 5.55503 44.5386 7.1007 45.9872 9.6098L54.134 23.7204C55.5826 26.2295 55.5826 29.3208 54.134 31.8299L45.9872 45.9405C44.5386 48.4496 41.8614 49.9953 38.9642 49.9953L22.6707 49.9953C19.7734 49.9953 17.0962 48.4496 15.6476 45.9405L7.50086 31.8299Z" fill="#fff"/>
<path d="M23.3199 16C22.5305 16 21.8799 16.6506 21.8799 17.44V40H40.1199V17.44C40.1199 16.6506 39.4693 16 38.6799 16H23.3199ZM23.3199 16.96H38.6799C38.9461 16.96 39.1599 17.1738 39.1599 17.44V39.04H37.2399V33.28H31.9599V39.04H22.8399V17.44C22.8399 17.1738 23.0536 16.96 23.3199 16.96ZM24.7599 18.88V22.72H30.0399V18.88H24.7599ZM31.9599 18.88V22.72H37.2399V18.88H31.9599ZM25.7199 19.84H29.0799V21.76H25.7199V19.84ZM32.9199 19.84H36.2799V21.76H32.9199V19.84ZM24.7599 23.68V27.52H30.0399V23.68H24.7599ZM31.9599 23.68V27.52H37.2399V23.68H31.9599ZM25.7199 24.64H29.0799V26.56H25.7199V24.64ZM32.9199 24.64H36.2799V26.56H32.9199V24.64ZM24.7599 28.48V32.32H30.0399V28.48H24.7599ZM31.9599 28.48V32.32H37.2399V28.48H31.9599ZM25.7199 29.44H29.0799V31.36H25.7199V29.44ZM32.9199 29.44H36.2799V31.36H32.9199V29.44ZM24.7599 33.28V37.12H30.0399V33.28H24.7599ZM25.7199 34.24H29.0799V36.16H25.7199V34.24ZM32.9199 34.24H36.2799V39.04H32.9199V34.24Z" fill="#F75929"/>
</svg>
