<svg width="185" height="65" viewBox="0 0 185 65" fill="none" xmlns="http://www.w3.org/2000/svg">
<g clip-path="url(#clip0_288_855)">
<path d="M90.4846 31.6196C90.0254 31.8016 89.4267 31.8928 88.6881 31.8928C87.5304 31.8928 86.6818 31.7361 86.1429 31.4227C85.6039 31.1089 85.2845 30.5675 85.1847 29.7986C84.9851 29.8189 84.7803 29.8342 84.5705 29.8442C84.3608 29.8542 84.1464 29.8592 83.9268 29.8592C82.9887 29.8592 82.1152 29.7837 81.3067 29.6316C80.4983 29.4799 79.7998 29.2316 79.2109 28.8879C78.622 28.5439 78.1575 28.0784 77.8184 27.4918C77.479 26.9049 77.3093 26.1865 77.3093 25.3368V11.5263C77.3093 10.6765 77.479 9.95818 77.8184 9.37124C78.1579 8.7843 78.622 8.31917 79.2109 7.97513C79.7998 7.63109 80.4983 7.38321 81.3067 7.23149C82.1152 7.07977 82.9887 7.00391 83.9268 7.00391C84.8449 7.00391 85.7033 7.07941 86.5019 7.23149C87.3006 7.38321 87.9942 7.63607 88.583 7.99044C89.1719 8.34446 89.6357 8.80995 89.9751 9.38691C90.3146 9.96352 90.4843 10.6869 90.4843 11.5569V25.3068C90.4843 26.3589 90.2499 27.1987 89.7808 27.8259C89.3118 28.4531 88.6579 28.9285 87.8195 29.2523H90.4846V31.6196ZM85.4243 11.1014C85.4243 10.1907 84.9254 9.73558 83.9272 9.73558C82.929 9.73558 82.43 10.1907 82.43 11.1014V25.762C82.43 26.6727 82.929 27.1278 83.9272 27.1278C84.9254 27.1278 85.4243 26.6727 85.4243 25.762V11.1014ZM92.2815 11.5263C92.2815 10.6765 92.4512 9.95818 92.7906 9.37124C93.13 8.7843 93.5941 8.31917 94.183 7.97513C94.7719 7.63109 95.4704 7.38321 96.2789 7.23149C97.0874 7.07977 97.9608 7.00391 98.899 7.00391C99.8171 7.00391 100.675 7.07941 101.474 7.23149C102.272 7.38321 102.966 7.63607 103.555 7.99044C104.144 8.34446 104.608 8.80995 104.947 9.38691C105.287 9.96352 105.456 10.6869 105.456 11.5569V25.3674C105.456 26.2375 105.287 26.9608 104.947 27.5374C104.608 28.114 104.144 28.5795 103.555 28.9335C102.966 29.2879 102.272 29.5408 101.474 29.6928C100.675 29.8446 99.8171 29.9204 98.899 29.9204C97.9608 29.9204 97.087 29.8449 96.2789 29.6928C95.4704 29.5411 94.7719 29.2929 94.183 28.9492C93.5941 28.6052 93.1296 28.1397 92.7906 27.5531C92.4512 26.9662 92.2815 26.2482 92.2815 25.398V11.5267V11.5263ZM100.396 11.1014C100.396 10.1907 99.8975 9.73558 98.8993 9.73558C97.9011 9.73558 97.4022 10.1907 97.4022 11.1014V25.8226C97.4022 26.7332 97.9011 27.1884 98.8993 27.1884C99.8975 27.1884 100.396 26.7332 100.396 25.8226V11.1014ZM115.488 29.2523V21.7856C115.488 20.4098 114.859 19.7217 113.602 19.7217H112.494V29.2523H107.373V11.5263C107.373 10.6765 107.543 9.95818 107.882 9.37124C108.222 8.7843 108.686 8.31917 109.275 7.97513C109.864 7.63109 110.562 7.38321 111.37 7.23149C112.179 7.07977 113.052 7.00391 113.991 7.00391C114.909 7.00391 115.747 7.07941 116.506 7.23149C117.265 7.38321 117.923 7.63607 118.482 7.99044C119.041 8.34446 119.475 8.80995 119.785 9.38691C120.094 9.96352 120.249 10.6869 120.249 11.5569V15.0782C120.249 16.11 119.969 16.9042 119.41 17.4605C118.851 18.0168 117.923 18.3459 116.625 18.447C117.923 18.5685 118.876 18.8719 119.485 19.3577C120.094 19.8435 120.398 20.5109 120.398 21.3607V29.2523H115.488H115.488ZM115.488 11.1014C115.488 10.1907 114.989 9.73558 113.991 9.73558C112.993 9.73558 112.494 10.1907 112.494 11.1014V17.2935H113.602C114.2 17.2935 114.664 17.1464 114.994 16.8533C115.323 16.5598 115.488 16.0594 115.488 15.351V11.1014ZM130.55 29.2523V20.6929H127.556V29.2523H122.435V11.2229C122.435 10.5754 122.605 9.98845 122.944 9.46241C123.284 8.93638 123.748 8.49119 124.337 8.12685C124.926 7.76251 125.624 7.48435 126.433 7.29203C127.241 7.09971 128.115 7.00391 129.053 7.00391C129.971 7.00391 130.829 7.09971 131.628 7.29203C132.426 7.48435 133.12 7.76251 133.709 8.12685C134.298 8.49119 134.762 8.93638 135.101 9.46241C135.44 9.98845 135.61 10.5754 135.61 11.2229V29.2523H130.55H130.55ZM130.55 11.1014C130.55 10.1907 130.051 9.73558 129.053 9.73558C128.055 9.73558 127.556 10.1907 127.556 11.1014V17.8701H130.55V11.1014ZM146.151 29.2523L142.618 18.3559V29.2523H137.527V7.64142H142.618V17.2026L146.301 7.64142H151.062L147.349 16.99L151.661 29.2523H146.151ZM151.93 11.5263C151.93 10.6765 152.1 9.95818 152.44 9.37124C152.779 8.7843 153.243 8.31917 153.832 7.97513C154.421 7.63109 155.119 7.38321 155.928 7.23149C156.736 7.07977 157.61 7.00391 158.548 7.00391C159.466 7.00391 160.324 7.07941 161.123 7.23149C161.921 7.38321 162.615 7.63607 163.204 7.99044C163.793 8.34446 164.257 8.80995 164.596 9.38691C164.936 9.96352 165.105 10.6869 165.105 11.5569V25.3674C165.105 26.2375 164.936 26.9608 164.596 27.5374C164.257 28.114 163.793 28.5795 163.204 28.9335C162.615 29.2879 161.921 29.5408 161.123 29.6928C160.324 29.8446 159.466 29.9204 158.548 29.9204C157.61 29.9204 156.736 29.8449 155.928 29.6928C155.119 29.5411 154.421 29.2929 153.832 28.9492C153.243 28.6052 152.779 28.1397 152.44 27.5531C152.1 26.9662 151.93 26.2482 151.93 25.398V11.5267V11.5263ZM160.045 11.1014C160.045 10.1907 159.546 9.73558 158.548 9.73558C157.55 9.73558 157.051 10.1907 157.051 11.1014V25.8226C157.051 26.7332 157.55 27.1884 158.548 27.1884C159.546 27.1884 160.045 26.7332 160.045 25.8226V11.1014ZM168.789 13.7722L166.543 7.64106H171.334L171.663 13.7722H168.789ZM173.67 29.2523V7.64142H178.761V26.2781H184.929V29.2523H173.67H173.67Z" fill="#EE693E" stroke="#96989A" stroke-width="0.756155" stroke-miterlimit="22.9256"/>
<path d="M77.3093 57.3299V54.8109L83.2982 38.6327H77.459V35.7191H88.7478V38.2684L82.819 54.3856H88.7478V57.3296H77.3093V57.3299ZM90.6044 57.3299V35.7191H95.6953V57.3299H90.6044ZM101.684 57.3299V49.2257L96.9827 35.7191H102.163L104.708 45.0071L107.223 35.7191H111.835L106.894 49.2257V57.3299H101.683H101.684ZM111.835 39.6039C111.835 38.7542 112.005 38.0358 112.344 37.4489C112.684 36.8619 113.148 36.3968 113.737 36.0528C114.325 35.7087 115.024 35.4608 115.832 35.3091C116.641 35.1574 117.514 35.0815 118.452 35.0815C119.371 35.0815 120.229 35.1574 121.028 35.3091C121.826 35.4608 122.52 35.7137 123.109 36.0681C123.698 36.4221 124.161 36.8876 124.501 37.4645C124.84 38.0412 125.01 38.7645 125.01 39.6346V53.445C125.01 54.3151 124.84 55.0384 124.501 55.6151C124.161 56.1917 123.698 56.6571 123.109 57.0112C122.52 57.3655 121.826 57.6188 121.028 57.7705C120.229 57.9222 119.371 57.9981 118.452 57.9981C117.514 57.9981 116.641 57.9226 115.832 57.7705C115.024 57.6188 114.325 57.3705 113.737 57.0268C113.148 56.6828 112.683 56.2173 112.344 55.6307C112.005 55.0438 111.835 54.3254 111.835 53.4757V39.6043V39.6039ZM119.95 39.1791C119.95 38.2684 119.451 37.8132 118.453 37.8132C117.455 37.8132 116.956 38.2684 116.956 39.1791V53.9002C116.956 54.8109 117.455 55.266 118.453 55.266C119.451 55.266 119.95 54.8109 119.95 53.9002V39.1791Z" fill="#3A4D7C" stroke="#96989A" stroke-width="0.756155" stroke-miterlimit="22.9256"/>
<path d="M57.1528 17.4957C51.1709 5.76692 37.7363 -0.665519 25.0192 2.1007C9.29132 5.52331 -0.756515 20.4966 1.88922 36.5761C4.21241 50.7078 16.5525 61.3841 30.6838 61.3784C32.3879 61.3781 33.8348 61.6192 35.0368 62.8835C35.5512 63.4256 36.1935 63.536 36.9233 63.5324C41.7633 63.5089 46.6001 63.5203 51.4376 63.52C51.6435 63.52 51.8621 63.5602 52.05 63.5046C52.2981 63.4316 52.6003 63.3348 52.732 63.1439C52.8037 63.0392 52.5911 62.7051 52.4629 62.5017C52.3733 62.3529 52.2057 62.2535 52.0802 62.1231C50.5705 60.5379 49.0638 58.9477 47.5481 57.3667C47.1057 56.9066 47.0997 56.5341 47.6795 56.1922C47.9665 56.0237 48.2265 55.8093 48.4929 55.6095C59.7185 47.2435 63.6825 32.1114 58.0024 19.2561C57.7217 18.6264 57.4634 18.1036 57.1535 17.4964L57.1528 17.4957ZM45.246 64.3701C42.382 64.3701 39.5149 64.3427 36.6482 64.3875C35.8527 64.4 35.1802 64.2422 34.6335 63.6745C33.5242 62.5259 32.2063 62.262 30.6304 62.261C16.3948 62.2549 3.83294 51.6259 1.16613 37.4291C-1.93708 20.8998 8.11075 5.08489 24.2751 1.39837C41.8715 -2.61544 58.065 9.23939 60.8695 25.8421C62.9622 38.2543 58.8548 48.4238 49.106 56.2367C48.3404 56.8489 48.287 56.9657 48.9921 57.6784C50.8758 59.5806 52.7949 61.4475 54.6901 63.3405C55.2815 63.937 55.1905 64.3509 54.3072 64.3569C51.2879 64.3779 48.2655 64.3704 45.2463 64.3704L45.246 64.3701Z" fill="#FEFEFE"/>
<path d="M56.6159 17.7768C53.6884 12.0363 48.9345 7.59051 43.356 4.91796C37.776 2.24469 31.3718 1.34612 25.1446 2.70092C17.4379 4.37803 11.1243 8.88263 7.06296 14.9365C3.00124 20.9907 1.18893 28.597 2.48545 36.4765C3.62385 43.4018 7.22002 49.4806 12.2638 53.8253C17.2991 58.1625 23.774 60.7709 30.6838 60.7681C31.5893 60.7677 32.4315 60.8333 33.2189 61.0701C34.0407 61.3176 34.7912 61.7439 35.4718 62.4602C35.6492 62.6471 35.8499 62.7604 36.0695 62.8259C36.3228 62.9021 36.6102 62.9235 36.9208 62.9217C40.5451 62.9043 44.169 62.9061 47.7926 62.9082L51.4376 62.9093V62.9068C51.4875 62.9068 51.5718 62.9118 51.6554 62.9164C51.7524 62.9217 51.8497 62.9274 51.882 62.9178C51.985 62.8875 52.0978 62.853 52.1839 62.8127C52.2148 62.7985 52.2292 62.8003 52.2352 62.7964C52.3884 62.5716 52.0198 62.8943 51.9608 62.8402L51.9597 62.8409L51.9467 62.8213C51.9404 62.8106 51.8919 62.7696 51.843 62.7283C51.7763 62.6721 51.7088 62.6151 51.6466 62.5503L50.2844 61.1185C49.2289 60.0084 48.1727 58.8979 47.1144 57.7939C46.768 57.4338 46.5955 57.0716 46.6268 56.6873C46.6598 56.282 46.8994 55.9437 47.3762 55.6623C47.5642 55.5523 47.7581 55.4034 47.9507 55.2552L48.1348 55.1153C53.6336 51.0174 57.3538 45.262 59.0027 38.9571C60.6516 32.6535 60.2314 25.8012 57.4511 19.507L57.45 19.5073C57.2997 19.1693 57.169 18.8897 57.046 18.6358C56.9272 18.3908 56.7828 18.1044 56.6152 17.7764L56.6159 17.7768ZM53.226 63.4944C53.1561 63.5963 53.0707 63.681 52.9758 63.753L54.2351 63.7459C53.9256 63.4371 53.6128 63.1258 53.298 62.8138C53.3676 63.0403 53.3739 63.2782 53.2285 63.4919L53.226 63.4944ZM47.833 56.7831C47.833 56.7845 47.8548 56.8084 47.8962 56.8522C47.8997 56.8194 47.905 56.7874 47.9113 56.7564C47.8583 56.776 47.834 56.7699 47.833 56.7835V56.7831ZM45.2456 64.9842L42.8844 64.9778C40.8093 64.9724 38.7328 64.9667 36.6548 64.9995C36.1977 65.0066 35.769 64.9625 35.365 64.8318C34.9356 64.6925 34.5467 64.4617 34.1999 64.102C33.722 63.6077 33.1992 63.3039 32.6265 63.1233C32.025 62.9338 31.3591 62.8736 30.6297 62.8733C23.3731 62.8701 16.5433 60.163 11.1876 55.6491C5.82231 51.1274 1.93311 44.7912 0.571593 37.5424C-1.01234 29.1041 0.767651 20.8461 5.00997 14.2313C9.23893 7.63752 15.9137 2.67848 24.1419 0.801922C24.7128 0.671571 25.2694 0.55974 25.8112 0.465716C34.1781 -0.98631 42.1494 1.04446 48.4626 5.38772C54.7758 9.73098 59.4293 16.3874 61.1608 24.1864C61.2774 24.7125 61.3789 25.2303 61.465 25.7392C62.5237 32.0185 62.0212 37.7412 60.028 42.8918C58.0108 48.1034 54.4705 52.7166 49.4791 56.7169C49.2272 56.9184 49.1017 56.9487 49.0979 56.9851C49.093 57.0324 49.2047 57.0299 49.4173 57.2447C50.5121 58.3505 51.6308 59.4553 52.7492 60.5604C53.5327 61.3344 54.3163 62.1086 55.1131 62.9043L55.1156 62.9068C55.3549 63.1482 55.5183 63.3858 55.6005 63.6095C55.689 63.8502 55.6932 64.0821 55.6107 64.2997V64.3022C55.5253 64.5262 55.364 64.7 55.1251 64.8154C54.9238 64.9126 54.6522 64.9667 54.3092 64.9689C51.9217 64.9853 49.5311 64.9842 47.1415 64.9828L45.2459 64.9821V64.9846L45.2456 64.9842Z" fill="#3A4D7C"/>
<path d="M52.2141 18.4263C51.3322 19.0617 50.4412 19.7006 49.5087 20.3727C49.3084 20.0824 49.1499 19.8538 48.9915 19.6248C45.3714 14.3723 40.4446 11.2111 34.1876 10.3239C23.001 8.73833 12.481 16.5238 10.4719 27.7963C8.73514 37.5388 13.6018 47.0637 22.448 51.2805C22.8486 51.4718 23.2133 51.7777 23.539 52.0904C25.0396 53.5346 26.5196 55.0002 27.9008 56.3521C24.3464 56.2367 18.5556 53.822 14.5976 50.0233C10.786 46.3674 8.24183 41.9796 7.22254 36.7642C4.75916 24.1468 11.7066 11.9266 23.6138 7.96477C35.0903 4.14612 46.7554 9.25973 52.2141 18.4267V18.4263Z" fill="#EE693E" stroke="#96989A" stroke-width="0.756155" stroke-miterlimit="22.9256"/>
<path d="M57.3053 18.1732C57.2305 18.4638 57.2097 18.7801 57.078 19.0415C53.9091 25.4184 48.8628 29.7299 42.4983 32.5549C37.4549 34.7926 32.1578 35.9366 26.6629 36.1556C26.4893 36.1624 26.3129 36.1816 25.9841 36.2073C26.1278 37.052 26.2321 37.858 26.4025 38.649C27.8733 45.4657 31.667 50.7528 36.9644 55.0366C39.3529 56.968 41.9389 58.5835 44.7101 59.8909C44.8893 59.9757 45.0597 60.0775 45.299 60.205C40.8926 60.4743 31.1139 55.542 26.5729 50.719C21.4968 45.33 18.8272 38.8321 18.0201 31.3543C19.0426 31.5306 19.9333 31.7059 20.8303 31.8348C27.2757 32.7622 33.4578 31.6154 39.4608 29.2755C45.8464 26.7874 51.5803 23.1793 56.8208 18.7441C57.0091 18.5863 57.1437 18.3655 57.3053 18.1739V18.1729V18.1732Z" fill="#3A4D7C" stroke="#96989A" stroke-width="0.756155" stroke-miterlimit="22.9256"/>
<path d="M59.3439 25.2087C58.6057 26.6981 57.9627 28.2492 57.1079 29.6663C54.1723 34.5188 49.8734 37.8054 44.857 40.1421C42.7078 41.1429 40.4267 41.8623 38.1756 42.6223C37.5835 42.8225 37.4732 43.0194 37.6046 43.5871C38.678 48.236 40.9049 52.2608 43.993 55.8255C44.1276 55.9805 44.259 56.1382 44.4087 56.3149C39.6734 55.5477 31.2907 45.3198 30.5374 39.344C42.1305 38.8646 51.7356 34.2328 59.1437 25.0947C59.2094 25.1325 59.2782 25.1706 59.3439 25.2087Z" fill="#3A4D7C" stroke="#96989A" stroke-width="0.756155" stroke-miterlimit="22.9256"/>
<path d="M13.8562 23.8214C19.336 20.0957 30.7977 22.5036 34.1367 28.0677C32.9498 28.2654 31.811 28.4962 30.6628 28.6394C27.509 29.0322 24.3489 29.2195 21.1803 28.8317C20.6244 28.7633 20.0774 28.6312 19.5212 28.5425C18.3972 28.3626 17.5841 28.0467 17.3361 26.6154C17.0343 24.8834 15.671 24.0336 13.8562 23.8214Z" fill="#3A4D7C" stroke="#96989A" stroke-width="0.756155" stroke-miterlimit="22.9256"/>
<path d="M45.2157 52.4116C44.6328 51.5405 44.1276 50.7637 43.5984 50.0037C43.3384 49.6308 43.4698 49.4182 43.7896 49.1817C46.7909 46.98 49.0838 44.1796 50.6685 40.7826C50.7401 40.6231 50.8389 40.4496 50.9703 40.3456C52.465 39.1839 53.966 38.0346 55.5232 36.8379C54.0883 43.3708 50.6506 48.4858 45.2154 52.4116H45.2157Z" fill="#EE693E" stroke="#96989A" stroke-width="0.756155" stroke-miterlimit="22.9256"/>
</g>
<defs>
<clipPath id="clip0_288_855">
<rect width="185" height="65" fill="white"/>
</clipPath>
</defs>
</svg>
